<svg width="64" height="64" viewBox="0 0 64 64" fill="none" xmlns="http://www.w3.org/2000/svg">
<path d="M32 64C49.6731 64 64 49.6731 64 32C64 14.3269 49.6731 0 32 0C14.3269 0 0 14.3269 0 32C0 49.6731 14.3269 64 32 64Z" fill="#FBB044"/>
<path d="M47.4001 18.0998C47.4001 18.5998 47.4001 19.0998 47.4001 19.4998C47.3001 24.5998 46.8001 28.3998 45.8001 31.2998C44.4001 35.1998 42.3001 37.2998 39.4001 38.3998C37.0001 39.2998 34.1001 39.5998 30.8001 39.5998C27.5001 39.5998 24.6001 39.3998 22.2001 38.3998C17.0001 36.3998 14.1001 31.0998 14.1001 18.0998C14.1001 16.9998 14.1001 15.8998 14.2001 14.7998H47.5001C47.4001 15.9998 47.4001 16.9998 47.4001 18.0998Z" fill="#80BDFF"/>
<path d="M30.7 40.6C26.7 40.6 24 40.2 21.8 39.4H21.7C15.6 37 13 30.7 13 18.2C13 17.1 13 16 13.1 14.9C13.1 14.4 13.6 14 14.1 14H47.4C47.9 14 48.4 14.4 48.4 15C48.4 16.1 48.5 17.2 48.5 18.3C48.5 18.8 48.5 19.3 48.5 19.8C48.4 24.9 47.9 28.8 46.8 31.9C45.4 35.9 43.2 38.3 39.8 39.6C37.4 40.2 34.7 40.6 30.7 40.6ZM22.3 37.5C22.4 37.5 22.4 37.5 22.3 37.5C24.4 38.3 26.9 38.6 30.6 38.6C34.4 38.6 36.9 38.3 38.9 37.5C41.7 36.4 43.6 34.4 44.7 31C45.7 28.2 46.2 24.4 46.3 19.5C46.3 19 46.3 18.6 46.3 18.1C46.3 17.3 46.3 16.6 46.3 15.8H15C15 16.5 15 17.3 15 18.1C15 32.6 18.7 36 22.3 37.5Z" fill="#143751"/>
<path d="M39.3 38.3999V39.8999C39.3 41.3999 38.1 43.6999 36.6 43.6999H24.7C23.2 43.6999 22 41.3999 22 39.8999V38.3999C24.4 39.2999 27.3 39.5999 30.6 39.5999C34 39.5999 36.9 39.3999 39.3 38.3999Z" fill="#2E9FD9"/>
<path d="M36.6 44.8H24.7C22.5 44.8 21 41.9 21 40V38.5C21 37.9 21.4 37.5 22 37.5C22.1 37.5 22.3 37.5 22.4 37.6C24.4 38.4 26.9 38.7 30.7 38.7C34.5 38.7 37 38.4 39 37.6C39.3 37.5 39.7 37.5 39.9 37.7C40.2 37.9 40.3 38.2 40.3 38.5V40C40.3 41.9 38.8 44.8 36.6 44.8ZM23.1 39.8V39.9C23.1 41.1 24.1 42.7 24.8 42.7H36.7C37.4 42.7 38.4 41.1 38.4 39.9V39.8C36.4 40.3 34 40.6 30.8 40.6C27.4 40.6 25 40.4 23.1 39.8Z" fill="#143751"/>
<path d="M49.1 34C48.7 34 48.2 33.9 47.8 33.8C46.7 33.5 45.8 32.9 45 32C44.8 31.7 44.7 31.4 44.8 31C45.8 28.2 46.3 24.4 46.4 19.5C46.4 19.2 46.5 18.9 46.8 18.7C48.4 17.4 50.4 16.9 52.2 17.3C53.6 17.7 54.8 18.6 55.6 20.1C56.7 22.1 57 24.7 56.3 27.2C55.2 31.2 52.1 34 49.1 34ZM46.9 31.1C47.3 31.5 47.8 31.7 48.3 31.9C50.7 32.5 53.5 30.3 54.4 26.8C54.9 24.8 54.7 22.7 53.9 21.2C53.4 20.2 52.6 19.6 51.7 19.4C50.7 19.1 49.5 19.4 48.5 20.1C48.3 24.6 47.8 28.2 46.9 31.1Z" fill="#143751"/>
<rect x="9.5" y="46.5" width="42" height="2" rx="1" fill="#2E9FD9" stroke="#143751"/>
<rect x="20.5" y="48.5" width="20" height="1" rx="0.5" stroke="#143751"/>
<path d="M39.3008 23.9317C39.3008 24.0453 39.3008 24.1589 39.3008 24.2498C39.2825 25.4089 39.1909 26.2726 39.0077 26.9317C38.7513 27.8181 38.3666 28.2954 37.8355 28.5454C37.3959 28.7499 36.8647 28.8181 36.2603 28.8181C35.6558 28.8181 35.1246 28.7726 34.685 28.5454C33.7326 28.0908 33.2014 26.8862 33.2014 23.9317C33.2014 23.6816 33.2014 23.4316 33.2197 23.1816H39.3191C39.3008 23.4544 39.3008 23.6816 39.3008 23.9317Z" fill="#80BDFF"/>
<path d="M36.242 29.0455C35.5093 29.0455 35.0148 28.9546 34.6118 28.7728H34.5935C33.4762 28.2273 33 26.7955 33 23.9546C33 23.7046 33 23.4546 33.0183 23.2045C33.0183 23.0909 33.1099 23 33.2015 23H39.3008C39.3924 23 39.484 23.0909 39.484 23.2273C39.484 23.4773 39.5023 23.7273 39.5023 23.9773C39.5023 24.0909 39.5023 24.2046 39.5023 24.3182C39.484 25.4773 39.3924 26.3637 39.1909 27.0682C38.9345 27.9773 38.5316 28.5228 37.9088 28.8183C37.4692 28.9546 36.9747 29.0455 36.242 29.0455ZM34.7034 28.341C34.7217 28.341 34.7217 28.341 34.7034 28.341C35.0881 28.5228 35.546 28.591 36.2237 28.591C36.9197 28.591 37.3776 28.5228 37.744 28.341C38.2568 28.091 38.6048 27.6364 38.8063 26.8637C38.9895 26.2273 39.0811 25.3637 39.0994 24.25C39.0994 24.1364 39.0994 24.0455 39.0994 23.9318C39.0994 23.75 39.0994 23.5909 39.0994 23.4091H33.3663C33.3663 23.5682 33.3663 23.75 33.3663 23.9318C33.3663 27.2273 34.044 28.0001 34.7034 28.341Z" fill="#143751"/>
<path d="M37.8172 28.5454V28.8863C37.8172 29.2272 37.5974 29.75 37.3226 29.75H35.143C34.8682 29.75 34.6484 29.2272 34.6484 28.8863V28.5454C35.088 28.75 35.6192 28.8181 36.2236 28.8181C36.8464 28.8181 37.3776 28.7727 37.8172 28.5454Z" fill="#80BDFF"/>
<path d="M37.3229 29.9999H35.1433C34.7403 29.9999 34.4656 29.3408 34.4656 28.909V28.5681C34.4656 28.4317 34.5388 28.3408 34.6487 28.3408C34.6671 28.3408 34.7037 28.3408 34.722 28.3635C35.0883 28.5454 35.5462 28.6136 36.2423 28.6136C36.9383 28.6136 37.3962 28.5454 37.7625 28.3635C37.8175 28.3408 37.8907 28.3408 37.9274 28.3863C37.9823 28.4317 38.0006 28.4999 38.0006 28.5681V28.909C38.0006 29.3408 37.7259 29.9999 37.3229 29.9999ZM34.8502 28.8636V28.8863C34.8502 29.159 35.0334 29.5227 35.1616 29.5227H37.3413C37.4695 29.5227 37.6526 29.159 37.6526 28.8863V28.8636C37.2863 28.9772 36.8467 29.0454 36.2606 29.0454C35.6378 29.0454 35.1982 28.9999 34.8502 28.8636Z" fill="#143751"/>
<path d="M39.6122 27.5453C39.5389 27.5453 39.4473 27.5226 39.3741 27.4999C39.1726 27.4317 39.0077 27.2953 38.8612 27.0908C38.8246 27.0226 38.8063 26.9544 38.8246 26.8635C39.0077 26.2271 39.0993 25.3635 39.1176 24.2498C39.1176 24.1816 39.1359 24.1134 39.1909 24.068C39.484 23.7725 39.8503 23.6589 40.18 23.7498C40.4364 23.8407 40.6562 24.0453 40.8027 24.3862C41.0042 24.8407 41.0592 25.4316 40.931 25.9998C40.7295 26.9089 40.1617 27.5453 39.6122 27.5453ZM39.2092 26.8862C39.2825 26.9771 39.3741 27.0226 39.4656 27.068C39.9052 27.2044 40.4181 26.7044 40.5829 25.9089C40.6745 25.4544 40.6379 24.9771 40.4914 24.6362C40.3998 24.4089 40.2532 24.2725 40.0884 24.2271C39.9052 24.1589 39.6854 24.2271 39.5023 24.3862C39.4656 25.4089 39.3741 26.2271 39.2092 26.8862Z" fill="#143751"/>
<path d="M24.8864 24.6364C24.8523 24.3485 24.714 24.125 24.4716 23.9659C24.2292 23.8068 23.9318 23.7273 23.5795 23.7273C23.322 23.7273 23.0966 23.7689 22.9034 23.8523C22.7121 23.9356 22.5625 24.0502 22.4545 24.196C22.3485 24.3419 22.2955 24.5076 22.2955 24.6932C22.2955 24.8485 22.3324 24.982 22.4062 25.0938C22.482 25.2036 22.5786 25.2955 22.696 25.3693C22.8134 25.4413 22.9366 25.5009 23.0653 25.5483C23.1941 25.5937 23.3125 25.6307 23.4205 25.6591L24.0114 25.8182C24.1629 25.858 24.3314 25.9129 24.517 25.983C24.7045 26.053 24.8835 26.1487 25.054 26.2699C25.2263 26.3892 25.3684 26.5426 25.4801 26.7301C25.5919 26.9176 25.6477 27.1477 25.6477 27.4205C25.6477 27.7348 25.5653 28.0189 25.4006 28.2727C25.2377 28.5265 24.9991 28.7282 24.6847 28.8778C24.3722 29.0275 23.9924 29.1023 23.5455 29.1023C23.1288 29.1023 22.768 29.035 22.4631 28.9006C22.16 28.7661 21.9214 28.5786 21.7472 28.3381C21.5748 28.0975 21.4773 27.8182 21.4545 27.5H22.1818C22.2008 27.7197 22.2746 27.9015 22.4034 28.0455C22.5341 28.1875 22.6989 28.2936 22.8977 28.3636C23.0985 28.4318 23.3144 28.4659 23.5455 28.4659C23.8144 28.4659 24.0559 28.4223 24.2699 28.3352C24.4839 28.2462 24.6534 28.1231 24.7784 27.9659C24.9034 27.8068 24.9659 27.6212 24.9659 27.4091C24.9659 27.2159 24.9119 27.0587 24.804 26.9375C24.696 26.8163 24.554 26.7178 24.3778 26.642C24.2017 26.5663 24.0114 26.5 23.8068 26.4432L23.0909 26.2386C22.6364 26.108 22.2765 25.9214 22.0114 25.679C21.7462 25.4366 21.6136 25.1193 21.6136 24.7273C21.6136 24.4015 21.7017 24.1174 21.8778 23.875C22.0559 23.6307 22.2945 23.4413 22.5938 23.3068C22.8949 23.1705 23.2311 23.1023 23.6023 23.1023C23.9773 23.1023 24.3106 23.1695 24.6023 23.304C24.8939 23.4366 25.125 23.6184 25.2955 23.8494C25.4678 24.0805 25.5587 24.3428 25.5682 24.6364H24.8864ZM26.8061 29V23.1818H27.5107V25.7727H30.6129V23.1818H31.3175V29H30.6129V26.3977H27.5107V29H26.8061Z" fill="#143751"/>
</svg>
