<svg xmlns="http://www.w3.org/2000/svg" xmlns:xlink="http://www.w3.org/1999/xlink" width="720" zoomAndPan="magnify" viewBox="0 0 540 540.000001" height="720" preserveAspectRatio="xMidYMid meet" version="1.0"><defs><g/><clipPath id="61ebd27b52"><path d="M 0.5 161.699219 L 216.101562 161.699219 L 216.101562 377.300781 L 0.5 377.300781 Z M 0.5 161.699219 " clip-rule="nonzero"/></clipPath></defs><g clip-path="url(#61ebd27b52)"><path fill="#fbb044" d="M 108.300781 377.300781 C 167.835938 377.300781 216.101562 329.039062 216.101562 269.5 C 216.101562 209.964844 167.835938 161.699219 108.300781 161.699219 C 48.761719 161.699219 0.5 209.964844 0.5 269.5 C 0.5 329.039062 48.761719 377.300781 108.300781 377.300781 Z M 108.300781 377.300781 " fill-opacity="1" fill-rule="nonzero"/></g><path fill="#80bdff" d="M 160.179688 222.675781 C 160.179688 224.359375 160.179688 226.042969 160.179688 227.390625 C 159.84375 244.570312 158.15625 257.371094 154.789062 267.140625 C 150.074219 280.28125 142.996094 287.355469 133.230469 291.058594 C 125.144531 294.09375 115.375 295.101562 104.257812 295.101562 C 93.140625 295.101562 83.371094 294.429688 75.285156 291.058594 C 57.769531 284.324219 48 266.46875 48 222.675781 C 48 218.96875 48 215.261719 48.335938 211.558594 L 160.515625 211.558594 C 160.179688 215.601562 160.179688 218.96875 160.179688 222.675781 Z M 160.179688 222.675781 " fill-opacity="1" fill-rule="nonzero"/><path fill="#143751" d="M 103.921875 298.472656 C 90.445312 298.472656 81.347656 297.125 73.9375 294.429688 L 73.601562 294.429688 C 53.050781 286.34375 44.292969 265.121094 44.292969 223.011719 C 44.292969 219.304688 44.292969 215.601562 44.628906 211.894531 C 44.628906 210.210938 46.3125 208.863281 48 208.863281 L 160.179688 208.863281 C 161.863281 208.863281 163.546875 210.210938 163.546875 212.230469 C 163.546875 215.9375 163.882812 219.644531 163.882812 223.347656 C 163.882812 225.035156 163.882812 226.71875 163.882812 228.402344 C 163.546875 245.582031 161.863281 258.722656 158.15625 269.164062 C 153.441406 282.640625 146.03125 290.722656 134.574219 295.101562 C 126.492188 297.125 117.394531 298.472656 103.921875 298.472656 Z M 75.621094 288.027344 C 75.960938 288.027344 75.960938 288.027344 75.621094 288.027344 C 82.695312 290.722656 91.117188 291.734375 103.582031 291.734375 C 116.382812 291.734375 124.804688 290.722656 131.542969 288.027344 C 140.976562 284.324219 147.378906 277.585938 151.082031 266.132812 C 154.453125 256.699219 156.136719 243.898438 156.472656 227.390625 C 156.472656 225.707031 156.472656 224.359375 156.472656 222.675781 C 156.472656 219.980469 156.472656 217.621094 156.472656 214.925781 L 51.03125 214.925781 C 51.03125 217.285156 51.03125 219.980469 51.03125 222.675781 C 51.03125 271.523438 63.496094 282.976562 75.621094 288.027344 Z M 75.621094 288.027344 " fill-opacity="1" fill-rule="nonzero"/><path fill="#2e9fd9" d="M 132.890625 291.0625 L 132.890625 296.113281 C 132.890625 301.167969 128.847656 308.914062 123.796875 308.914062 L 83.707031 308.914062 C 78.65625 308.914062 74.613281 301.167969 74.613281 296.113281 L 74.613281 291.0625 C 82.695312 294.09375 92.464844 295.101562 103.582031 295.101562 C 115.035156 295.101562 124.804688 294.429688 132.890625 291.0625 Z M 132.890625 291.0625 " fill-opacity="1" fill-rule="nonzero"/><path fill="#143751" d="M 123.796875 312.621094 L 83.707031 312.621094 C 76.296875 312.621094 71.242188 302.851562 71.242188 296.449219 L 71.242188 291.398438 C 71.242188 289.375 72.589844 288.027344 74.613281 288.027344 C 74.949219 288.027344 75.621094 288.027344 75.960938 288.367188 C 82.695312 291.0625 91.117188 292.070312 103.921875 292.070312 C 116.722656 292.070312 125.144531 291.0625 131.878906 288.367188 C 132.890625 288.027344 134.238281 288.027344 134.914062 288.703125 C 135.921875 289.375 136.261719 290.386719 136.261719 291.398438 L 136.261719 296.449219 C 136.261719 302.851562 131.207031 312.621094 123.796875 312.621094 Z M 78.316406 295.777344 L 78.316406 296.113281 C 78.316406 300.15625 81.6875 305.546875 84.042969 305.546875 L 124.132812 305.546875 C 126.492188 305.546875 129.859375 300.15625 129.859375 296.113281 L 129.859375 295.777344 C 123.121094 297.460938 115.035156 298.472656 104.257812 298.472656 C 92.804688 298.472656 84.71875 297.796875 78.316406 295.777344 Z M 78.316406 295.777344 " fill-opacity="1" fill-rule="nonzero"/><path fill="#143751" d="M 165.90625 276.238281 C 164.558594 276.238281 162.875 275.902344 161.527344 275.566406 C 157.820312 274.554688 154.789062 272.53125 152.09375 269.5 C 151.417969 268.492188 151.082031 267.480469 151.417969 266.132812 C 154.789062 256.699219 156.472656 243.898438 156.808594 227.390625 C 156.808594 226.378906 157.144531 225.371094 158.15625 224.695312 C 163.546875 220.316406 170.285156 218.632812 176.347656 219.980469 C 181.066406 221.328125 185.105469 224.359375 187.800781 229.414062 C 191.507812 236.148438 192.519531 244.910156 190.160156 253.332031 C 186.453125 266.804688 176.011719 276.238281 165.90625 276.238281 Z M 158.492188 266.46875 C 159.839844 267.816406 161.527344 268.492188 163.210938 269.164062 C 171.296875 271.183594 180.726562 263.773438 183.757812 251.984375 C 185.445312 245.246094 184.769531 238.171875 182.074219 233.117188 C 180.390625 229.75 177.695312 227.726562 174.664062 227.054688 C 171.296875 226.042969 167.253906 227.054688 163.882812 229.414062 C 163.210938 244.570312 161.527344 256.699219 158.492188 266.46875 Z M 158.492188 266.46875 " fill-opacity="1" fill-rule="nonzero"/><path stroke-linecap="butt" transform="matrix(3.368761, 0, 0, 3.368761, 0.499075, 161.700568)" fill-opacity="1" fill="#2e9fd9" fill-rule="nonzero" stroke-linejoin="miter" d="M 10.500007 46.499906 L 50.499871 46.499906 C 50.63206 46.499906 50.759611 46.525416 50.882523 46.576436 C 51.005436 46.626297 51.113274 46.699348 51.207197 46.793272 C 51.301121 46.887196 51.373013 46.995034 51.424033 47.116787 C 51.475054 47.239699 51.500564 47.36725 51.500564 47.499438 C 51.500564 47.632787 51.475054 47.760337 51.424033 47.88325 C 51.373013 48.005003 51.301121 48.112841 51.207197 48.206764 C 51.113274 48.300688 51.005436 48.37258 50.882523 48.4236 C 50.759611 48.474621 50.63206 48.500131 50.499871 48.500131 L 10.500007 48.500131 C 10.367818 48.500131 10.240268 48.474621 10.117355 48.4236 C 9.994443 48.37258 9.886605 48.300688 9.792681 48.206764 C 9.698757 48.112841 9.626865 48.005003 9.575845 47.88325 C 9.524825 47.760337 9.500474 47.632787 9.500474 47.499438 C 9.500474 47.36725 9.524825 47.239699 9.575845 47.116787 C 9.626865 46.995034 9.698757 46.887196 9.792681 46.793272 C 9.886605 46.699348 9.994443 46.626297 10.117355 46.576436 C 10.240268 46.525416 10.367818 46.499906 10.500007 46.499906 Z M 10.500007 46.499906 " stroke="#143751" stroke-width="1" stroke-opacity="1" stroke-miterlimit="4"/><path stroke-linecap="butt" transform="matrix(3.368761, 0, 0, 3.368761, 0.499075, 161.700568)" fill="none" stroke-linejoin="miter" d="M 20.999739 48.500131 L 40.000139 48.500131 C 40.066233 48.500131 40.130009 48.512886 40.191465 48.538396 C 40.252921 48.563906 40.30626 48.599852 40.353802 48.646234 C 40.400184 48.693776 40.43613 48.747115 40.46164 48.808571 C 40.48715 48.870028 40.499905 48.933803 40.499905 48.999897 C 40.499905 49.065992 40.48715 49.129767 40.46164 49.191223 C 40.43613 49.252679 40.400184 49.307178 40.353802 49.35356 C 40.30626 49.399942 40.252921 49.437048 40.191465 49.461398 C 40.130009 49.486909 40.066233 49.499664 40.000139 49.499664 L 20.999739 49.499664 C 20.933645 49.499664 20.86987 49.486909 20.808414 49.461398 C 20.746957 49.437048 20.693618 49.399942 20.646077 49.35356 C 20.599694 49.307178 20.563748 49.252679 20.538238 49.191223 C 20.512728 49.129767 20.499973 49.065992 20.499973 48.999897 C 20.499973 48.933803 20.512728 48.870028 20.538238 48.808571 C 20.563748 48.747115 20.599694 48.693776 20.646077 48.646234 C 20.693618 48.599852 20.746957 48.563906 20.808414 48.538396 C 20.86987 48.512886 20.933645 48.500131 20.999739 48.500131 Z M 20.999739 48.500131 " stroke="#143751" stroke-width="1" stroke-opacity="1" stroke-miterlimit="4"/><path fill="#80bdff" d="M 132.894531 242.320312 C 132.894531 242.703125 132.894531 243.085938 132.894531 243.390625 C 132.832031 247.296875 132.523438 250.207031 131.90625 252.425781 C 131.042969 255.414062 129.746094 257.019531 127.957031 257.863281 C 126.476562 258.550781 124.6875 258.78125 122.652344 258.78125 C 120.613281 258.78125 118.824219 258.628906 117.34375 257.863281 C 114.136719 256.332031 112.347656 252.273438 112.347656 242.320312 C 112.347656 241.476562 112.347656 240.636719 112.410156 239.792969 L 132.957031 239.792969 C 132.894531 240.710938 132.894531 241.476562 132.894531 242.320312 Z M 132.894531 242.320312 " fill-opacity="1" fill-rule="nonzero"/><path fill="#143751" d="M 122.589844 259.546875 C 120.121094 259.546875 118.457031 259.242188 117.097656 258.628906 L 117.035156 258.628906 C 113.273438 256.792969 111.667969 251.96875 111.667969 242.398438 C 111.667969 241.554688 111.667969 240.714844 111.730469 239.871094 C 111.730469 239.488281 112.039062 239.183594 112.347656 239.183594 L 132.894531 239.183594 C 133.203125 239.183594 133.511719 239.488281 133.511719 239.949219 C 133.511719 240.789062 133.574219 241.632812 133.574219 242.472656 C 133.574219 242.855469 133.574219 243.238281 133.574219 243.621094 C 133.511719 247.527344 133.203125 250.511719 132.523438 252.886719 C 131.660156 255.949219 130.304688 257.785156 128.203125 258.78125 C 126.722656 259.242188 125.058594 259.546875 122.589844 259.546875 Z M 117.40625 257.175781 C 117.46875 257.175781 117.46875 257.175781 117.40625 257.175781 C 118.703125 257.785156 120.246094 258.015625 122.527344 258.015625 C 124.871094 258.015625 126.414062 257.785156 127.648438 257.175781 C 129.378906 256.332031 130.550781 254.800781 131.226562 252.199219 C 131.84375 250.054688 132.152344 247.144531 132.214844 243.394531 C 132.214844 243.011719 132.214844 242.703125 132.214844 242.320312 C 132.214844 241.707031 132.214844 241.171875 132.214844 240.558594 L 112.902344 240.558594 C 112.902344 241.097656 112.902344 241.707031 112.902344 242.320312 C 112.902344 253.421875 115.183594 256.027344 117.40625 257.175781 Z M 117.40625 257.175781 " fill-opacity="1" fill-rule="nonzero"/><path fill="#80bdff" d="M 127.894531 257.863281 L 127.894531 259.011719 C 127.894531 260.160156 127.15625 261.921875 126.230469 261.921875 L 118.886719 261.921875 C 117.960938 261.921875 117.222656 260.160156 117.222656 259.011719 L 117.222656 257.863281 C 118.703125 258.550781 120.492188 258.78125 122.527344 258.78125 C 124.625 258.78125 126.414062 258.628906 127.894531 257.863281 Z M 127.894531 257.863281 " fill-opacity="1" fill-rule="nonzero"/><path fill="#143751" d="M 126.230469 262.761719 L 118.886719 262.761719 C 117.53125 262.761719 116.605469 260.542969 116.605469 259.089844 L 116.605469 257.941406 C 116.605469 257.480469 116.851562 257.175781 117.222656 257.175781 C 117.285156 257.175781 117.40625 257.175781 117.46875 257.25 C 118.703125 257.863281 120.246094 258.09375 122.589844 258.09375 C 124.933594 258.09375 126.476562 257.863281 127.710938 257.25 C 127.898438 257.175781 128.144531 257.175781 128.265625 257.328125 C 128.453125 257.480469 128.515625 257.710938 128.515625 257.941406 L 128.515625 259.089844 C 128.515625 260.542969 127.589844 262.761719 126.230469 262.761719 Z M 117.902344 258.933594 L 117.902344 259.011719 C 117.902344 259.929688 118.519531 261.15625 118.949219 261.15625 L 126.292969 261.15625 C 126.726562 261.15625 127.339844 259.929688 127.339844 259.011719 L 127.339844 258.933594 C 126.109375 259.316406 124.625 259.546875 122.652344 259.546875 C 120.554688 259.546875 119.074219 259.394531 117.902344 258.933594 Z M 117.902344 258.933594 " fill-opacity="1" fill-rule="nonzero"/><path fill="#143751" d="M 133.941406 254.492188 C 133.695312 254.492188 133.386719 254.417969 133.140625 254.339844 C 132.460938 254.113281 131.90625 253.652344 131.414062 252.964844 C 131.289062 252.734375 131.226562 252.503906 131.289062 252.199219 C 131.90625 250.054688 132.214844 247.144531 132.277344 243.390625 C 132.277344 243.164062 132.339844 242.933594 132.523438 242.78125 C 133.511719 241.785156 134.746094 241.402344 135.855469 241.707031 C 136.71875 242.015625 137.460938 242.703125 137.953125 243.851562 C 138.632812 245.382812 138.816406 247.375 138.386719 249.289062 C 137.707031 252.351562 135.792969 254.492188 133.941406 254.492188 Z M 132.585938 252.273438 C 132.832031 252.578125 133.140625 252.734375 133.449219 252.886719 C 134.929688 253.34375 136.65625 251.660156 137.214844 248.980469 C 137.523438 247.449219 137.398438 245.84375 136.90625 244.695312 C 136.597656 243.929688 136.101562 243.46875 135.546875 243.316406 C 134.929688 243.085938 134.191406 243.316406 133.574219 243.851562 C 133.449219 247.296875 133.140625 250.054688 132.585938 252.273438 Z M 132.585938 252.273438 " fill-opacity="1" fill-rule="nonzero"/><path fill="#143751" d="M 84.335938 244.695312 C 84.21875 243.726562 83.753906 242.972656 82.9375 242.4375 C 82.121094 241.898438 81.121094 241.632812 79.933594 241.632812 C 79.066406 241.632812 78.304688 241.773438 77.65625 242.054688 C 77.011719 242.332031 76.507812 242.71875 76.144531 243.210938 C 75.785156 243.703125 75.605469 244.261719 75.605469 244.886719 C 75.605469 245.410156 75.730469 245.859375 75.980469 246.234375 C 76.234375 246.605469 76.5625 246.914062 76.957031 247.164062 C 77.351562 247.40625 77.765625 247.605469 78.199219 247.765625 C 78.632812 247.917969 79.035156 248.042969 79.398438 248.140625 L 81.386719 248.675781 C 81.898438 248.808594 82.464844 248.996094 83.089844 249.230469 C 83.722656 249.46875 84.324219 249.789062 84.898438 250.199219 C 85.480469 250.597656 85.960938 251.117188 86.335938 251.746094 C 86.710938 252.378906 86.898438 253.15625 86.898438 254.074219 C 86.898438 255.132812 86.621094 256.089844 86.066406 256.945312 C 85.519531 257.800781 84.714844 258.480469 83.65625 258.984375 C 82.601562 259.488281 81.324219 259.738281 79.816406 259.738281 C 78.414062 259.738281 77.199219 259.511719 76.171875 259.058594 C 75.152344 258.605469 74.347656 257.976562 73.761719 257.164062 C 73.179688 256.355469 72.851562 255.414062 72.773438 254.339844 L 75.222656 254.339844 C 75.289062 255.082031 75.535156 255.695312 75.972656 256.179688 C 76.410156 256.65625 76.964844 257.015625 77.636719 257.25 C 78.3125 257.480469 79.039062 257.59375 79.816406 257.59375 C 80.722656 257.59375 81.539062 257.449219 82.257812 257.15625 C 82.980469 256.855469 83.550781 256.441406 83.972656 255.910156 C 84.394531 255.375 84.601562 254.75 84.601562 254.035156 C 84.601562 253.382812 84.421875 252.855469 84.058594 252.445312 C 83.695312 252.039062 83.214844 251.707031 82.621094 251.449219 C 82.027344 251.195312 81.386719 250.972656 80.699219 250.78125 L 78.285156 250.09375 C 76.753906 249.652344 75.542969 249.023438 74.648438 248.207031 C 73.757812 247.390625 73.308594 246.320312 73.308594 245 C 73.308594 243.902344 73.605469 242.945312 74.199219 242.128906 C 74.800781 241.308594 75.605469 240.667969 76.613281 240.214844 C 77.625 239.757812 78.757812 239.527344 80.007812 239.527344 C 81.273438 239.527344 82.394531 239.753906 83.378906 240.207031 C 84.359375 240.652344 85.140625 241.265625 85.714844 242.042969 C 86.292969 242.820312 86.601562 243.707031 86.632812 244.695312 Z M 90.800781 259.394531 L 90.800781 239.792969 L 93.175781 239.792969 L 93.175781 248.523438 L 103.625 248.523438 L 103.625 239.792969 L 106 239.792969 L 106 259.394531 L 103.625 259.394531 L 103.625 250.628906 L 93.175781 250.628906 L 93.175781 259.394531 Z M 90.800781 259.394531 " fill-opacity="1" fill-rule="nonzero"/><g fill="#bd7634" fill-opacity="1"><g transform="translate(215.653211, 294.873834)"><g><path d="M 53.1875 -47.21875 C 53.1875 -46.96875 52.925781 -46.8125 52.40625 -46.75 C 51.882812 -46.695312 51.363281 -46.789062 50.84375 -47.03125 C 50.320312 -47.28125 50.0625 -47.617188 50.0625 -48.046875 C 50.0625 -54.285156 50.765625 -59.316406 52.171875 -63.140625 C 53.585938 -66.972656 55.425781 -68.890625 57.6875 -68.890625 C 58.300781 -68.890625 58.820312 -68.675781 59.25 -68.25 C 59.675781 -67.820312 59.890625 -67.242188 59.890625 -66.515625 C 57.078125 -63.691406 55.085938 -59.585938 53.921875 -54.203125 C 53.429688 -51.992188 53.1875 -49.664062 53.1875 -47.21875 Z M 47.671875 -66.6875 C 39.222656 -66.6875 31.660156 -61.757812 24.984375 -51.90625 C 19.222656 -43.394531 15.457031 -33.472656 13.6875 -22.140625 C 13.070312 -18.398438 12.765625 -14.96875 12.765625 -11.84375 C 12.765625 -5.84375 13.867188 -1.023438 16.078125 2.609375 C 18.285156 6.253906 21.378906 8.078125 25.359375 8.078125 C 30.742188 8.078125 35.335938 4.988281 39.140625 -1.1875 C 41.703125 -5.351562 42.984375 -9.03125 42.984375 -12.21875 C 42.984375 -13.625 42.617188 -14.328125 41.890625 -14.328125 C 42.253906 -15.734375 43.171875 -16.4375 44.640625 -16.4375 C 46.359375 -16.4375 47.21875 -15.210938 47.21875 -12.765625 C 47.21875 -8.171875 45.195312 -3.273438 41.15625 1.921875 C 36.3125 8.109375 30.644531 11.203125 24.15625 11.203125 C 16.007812 11.203125 10.5 7.128906 7.625 -1.015625 C 6.21875 -4.804688 5.515625 -9.101562 5.515625 -13.90625 C 5.515625 -18.71875 6.3125 -24.09375 7.90625 -30.03125 C 10.96875 -41.789062 16.125 -51.5625 23.375 -59.34375 C 30.632812 -67.125 38.675781 -71.039062 47.5 -71.09375 C 48.71875 -71.09375 49.601562 -70.695312 50.15625 -69.90625 C 50.707031 -69.113281 50.953125 -68.347656 50.890625 -67.609375 L 50.890625 -66.421875 C 50.398438 -66.597656 49.328125 -66.6875 47.671875 -66.6875 Z M 47.671875 -66.6875 "/></g></g></g><g fill="#bd7634" fill-opacity="1"><g transform="translate(271.225414, 294.873834)"><g><path d="M 32.25 6.890625 C 32.976562 6.890625 33.664062 6.566406 34.3125 5.921875 C 34.957031 5.273438 35.554688 4.28125 36.109375 2.9375 C 36.171875 2.382812 36.535156 2.109375 37.203125 2.109375 C 37.878906 2.109375 38.140625 2.382812 37.984375 2.9375 C 37.828125 3.488281 37.582031 4.160156 37.25 4.953125 C 36.914062 5.753906 36.210938 6.8125 35.140625 8.125 C 34.066406 9.445312 32.976562 10.109375 31.875 10.109375 C 29.425781 10.109375 27.53125 8.578125 26.1875 5.515625 C 24.769531 2.453125 24.0625 -1.328125 24.0625 -5.828125 C 24.0625 -10.328125 24.398438 -14.96875 25.078125 -19.75 L 24.25 -19.75 C 16.84375 -6.832031 11.148438 -0.375 7.171875 -0.375 C 2.453125 -0.375 0.09375 -3.96875 0.09375 -11.15625 C 0.09375 -18.351562 1.625 -25.535156 4.6875 -32.703125 C 8.050781 -40.597656 11.019531 -44.546875 13.59375 -44.546875 C 14.695312 -44.546875 15.25 -43.875 15.25 -42.53125 C 12.675781 -35.726562 10.46875 -29.113281 8.625 -22.6875 C 6.789062 -16.257812 5.875 -11.46875 5.875 -8.3125 C 5.875 -5.15625 6.609375 -3.578125 8.078125 -3.578125 C 9.117188 -3.578125 10.664062 -4.832031 12.71875 -7.34375 C 14.769531 -9.851562 16.867188 -12.914062 19.015625 -16.53125 C 23.609375 -24.3125 27.113281 -30.925781 29.53125 -36.375 C 31.957031 -41.820312 34.453125 -44.546875 37.015625 -44.546875 C 38.242188 -44.546875 38.859375 -43.875 38.859375 -42.53125 C 34.941406 -34.75 32.15625 -25.472656 30.5 -14.703125 C 29.820312 -10.410156 29.484375 -6.210938 29.484375 -2.109375 C 29.484375 3.890625 30.40625 6.890625 32.25 6.890625 Z M 32.25 6.890625 "/></g></g></g><g fill="#bd7634" fill-opacity="1"><g transform="translate(314.856479, 294.873834)"><g><path d="M 17.453125 -8.453125 C 17.453125 -4.773438 18.429688 -2.9375 20.390625 -2.9375 C 22.898438 -2.9375 25.65625 -6.304688 28.65625 -13.046875 C 32.15625 -20.765625 33.90625 -27.988281 33.90625 -34.71875 C 33.90625 -39.3125 32.691406 -41.609375 30.265625 -41.609375 C 27.847656 -41.609375 25.195312 -39.738281 22.3125 -36 C 19.4375 -32.269531 16.878906 -27.9375 14.640625 -23 C 12.410156 -18.070312 10.5 -13.421875 8.90625 -9.046875 C 7.320312 -4.671875 6.359375 -1.425781 6.015625 0.6875 C 5.679688 2.800781 5.421875 4.394531 5.234375 5.46875 C 5.054688 6.539062 4.765625 8.238281 4.359375 10.5625 C 3.960938 12.894531 3.59375 14.671875 3.25 15.890625 C 2.914062 17.117188 2.472656 18.664062 1.921875 20.53125 C 1.378906 22.394531 0.816406 23.832031 0.234375 24.84375 C -0.347656 25.851562 -1.007812 26.878906 -1.75 27.921875 C -3.21875 29.941406 -5.082031 30.953125 -7.34375 30.953125 C -10.28125 30.953125 -11.75 29.269531 -11.75 25.90625 C -11.75 19.90625 -7.160156 8.609375 2.015625 -7.984375 C 2.941406 -14.722656 3.894531 -20.175781 4.875 -24.34375 C 7.007812 -34.207031 9.285156 -41.847656 11.703125 -47.265625 C 14.128906 -52.679688 16.320312 -55.390625 18.28125 -55.390625 C 19.257812 -55.390625 19.75 -54.804688 19.75 -53.640625 C 16.8125 -45.867188 13.78125 -36.007812 10.65625 -24.0625 L 10.109375 -21.953125 L 11.296875 -21.953125 C 18.273438 -37.140625 24.859375 -44.734375 31.046875 -44.734375 C 36.804688 -44.734375 39.6875 -40.171875 39.6875 -31.046875 C 39.6875 -24.429688 38.003906 -17.816406 34.640625 -11.203125 C 30.898438 -3.734375 26.425781 0 21.21875 0 C 17 0 14.890625 -2.753906 14.890625 -8.265625 C 14.890625 -11.203125 15.695312 -14.582031 17.3125 -18.40625 C 18.9375 -22.238281 21.066406 -25.078125 23.703125 -26.921875 C 24.253906 -27.222656 24.710938 -27.097656 25.078125 -26.546875 C 25.140625 -26.242188 25.109375 -26.03125 24.984375 -25.90625 C 22.660156 -24.070312 20.820312 -21.378906 19.46875 -17.828125 C 18.125 -14.273438 17.453125 -11.148438 17.453125 -8.453125 Z M -9.28125 25.078125 C -9.28125 26.910156 -8.601562 27.828125 -7.25 27.828125 C -4.5 27.828125 -2.445312 24.09375 -1.09375 16.625 C -0.601562 14.050781 0.25 7.5625 1.46875 -2.84375 C -4.101562 7.925781 -7.5625 16.285156 -8.90625 22.234375 C -9.15625 23.335938 -9.28125 24.285156 -9.28125 25.078125 Z M -9.28125 25.078125 "/></g></g></g><g fill="#ebaa6e" fill-opacity="1"><g transform="translate(359.316852, 294.873834)"><g><path d="M 4.5 3.765625 C 4.5 8.296875 6.890625 11.019531 11.671875 11.9375 C 12.585938 12.125 13.628906 12.21875 14.796875 12.21875 C 22.441406 12.21875 28.5 9.75 32.96875 4.8125 C 37.445312 -0.113281 39.6875 -6.3125 39.6875 -13.78125 C 39.6875 -16.71875 39.148438 -19.425781 38.078125 -21.90625 C 37.003906 -24.382812 35.671875 -26.4375 34.078125 -28.0625 C 32.484375 -29.6875 30.753906 -31.320312 28.890625 -32.96875 C 27.023438 -34.625 25.296875 -36.125 23.703125 -37.46875 C 22.109375 -38.820312 20.773438 -40.445312 19.703125 -42.34375 C 18.628906 -44.25 18.09375 -46.269531 18.09375 -48.40625 C 18.09375 -54.039062 20.617188 -59.226562 25.671875 -63.96875 C 30.722656 -68.71875 36.160156 -71.09375 41.984375 -71.09375 C 43.140625 -71.09375 43.992188 -70.664062 44.546875 -69.8125 C 45.097656 -68.957031 45.375 -68.101562 45.375 -67.25 L 45.28125 -66.046875 C 44.851562 -66.296875 43.785156 -66.421875 42.078125 -66.421875 C 38.148438 -66.421875 34.347656 -64.582031 30.671875 -60.90625 C 27.003906 -57.226562 25.171875 -52.972656 25.171875 -48.140625 C 25.171875 -46.179688 25.707031 -44.265625 26.78125 -42.390625 C 27.851562 -40.523438 29.179688 -38.882812 30.765625 -37.46875 C 32.359375 -36.0625 34.070312 -34.484375 35.90625 -32.734375 C 37.75 -30.992188 39.46875 -29.28125 41.0625 -27.59375 C 42.65625 -25.914062 43.988281 -23.867188 45.0625 -21.453125 C 46.132812 -19.035156 46.671875 -16.476562 46.671875 -13.78125 C 46.671875 -6.363281 43.609375 0.21875 37.484375 5.96875 C 31.359375 11.726562 23.796875 14.609375 14.796875 14.609375 C 7.203125 14.609375 2.394531 12.15625 0.375 7.25 C -1.21875 3.207031 -0.609375 -1.257812 2.203125 -6.15625 C 5.023438 -11.050781 9.097656 -14.359375 14.421875 -16.078125 C 16.378906 -16.691406 18.125 -17 19.65625 -17 C 21.1875 -17 22.242188 -16.738281 22.828125 -16.21875 C 23.410156 -15.695312 23.789062 -14.882812 23.96875 -13.78125 C 18.21875 -13.78125 13.289062 -11.453125 9.1875 -6.796875 C 6.0625 -3.304688 4.5 0.210938 4.5 3.765625 Z M 47.125 -47.03125 C 47.125 -46.726562 46.832031 -46.578125 46.25 -46.578125 C 45.664062 -46.578125 45.128906 -46.695312 44.640625 -46.9375 C 44.148438 -47.1875 43.90625 -47.523438 43.90625 -47.953125 C 43.90625 -54.203125 44.609375 -59.222656 46.015625 -63.015625 C 47.429688 -66.816406 49.300781 -68.71875 51.625 -68.71875 C 52.238281 -68.71875 52.757812 -68.5 53.1875 -68.0625 C 53.613281 -67.632812 53.828125 -67.085938 53.828125 -66.421875 C 51.078125 -63.660156 49.085938 -59.523438 47.859375 -54.015625 C 47.367188 -51.804688 47.125 -49.476562 47.125 -47.03125 Z M 47.125 -47.03125 "/></g></g></g><g fill="#ebaa6e" fill-opacity="1"><g transform="translate(414.705341, 294.873834)"><g><path d="M 16.796875 -26.640625 C 13.554688 -20.765625 11.03125 -15.554688 9.21875 -11.015625 C 7.414062 -6.484375 6.515625 -3.804688 6.515625 -2.984375 C 6.515625 -2.160156 6.085938 -1.75 5.234375 -1.75 C 3.398438 -1.75 2.484375 -4.195312 2.484375 -9.09375 C 2.484375 -18.832031 3.460938 -28.613281 5.421875 -38.4375 C 7.378906 -48.269531 9.703125 -56.140625 12.390625 -62.046875 C 15.085938 -67.960938 17.601562 -70.921875 19.9375 -70.921875 C 20.914062 -70.921875 21.40625 -70.429688 21.40625 -69.453125 C 18.15625 -62.285156 15.441406 -54.109375 13.265625 -44.921875 C 11.097656 -35.734375 9.28125 -25.9375 7.8125 -15.53125 L 8.453125 -15.53125 C 16.234375 -34.632812 23.859375 -44.1875 31.328125 -44.1875 C 34.453125 -44.1875 36.015625 -42.6875 36.015625 -39.6875 C 35.578125 -38.28125 35.019531 -36.425781 34.34375 -34.125 C 33.675781 -31.832031 32.789062 -27.710938 31.6875 -21.765625 C 30.582031 -15.828125 30.03125 -10.625 30.03125 -6.15625 C 30.03125 0.332031 30.984375 3.578125 32.890625 3.578125 C 33.554688 3.578125 34.226562 3.285156 34.90625 2.703125 C 35.582031 2.128906 36.039062 1.84375 36.28125 1.84375 C 37.144531 1.84375 37.113281 2.515625 36.1875 3.859375 C 35.945312 4.285156 35.410156 4.863281 34.578125 5.59375 C 33.753906 6.332031 32.945312 6.703125 32.15625 6.703125 C 29.757812 6.703125 27.90625 5.03125 26.59375 1.6875 C 25.28125 -1.644531 24.625 -5.972656 24.625 -11.296875 C 24.625 -20.296875 25.96875 -29.578125 28.65625 -39.140625 C 28.78125 -40.054688 28.414062 -40.453125 27.5625 -40.328125 C 27.132812 -40.265625 26.703125 -40.019531 26.265625 -39.59375 C 23.203125 -36.832031 20.046875 -32.515625 16.796875 -26.640625 Z M 16.796875 -26.640625 "/></g></g></g><g fill="#ebaa6e" fill-opacity="1"><g transform="translate(456.591163, 294.873834)"><g><path d="M 11.296875 0.828125 C 3.765625 0.828125 0 -4.347656 0 -14.703125 C 0 -20.515625 1.46875 -26.332031 4.40625 -32.15625 C 8.144531 -39.5 12.585938 -43.171875 17.734375 -43.171875 C 18.460938 -43.171875 19.070312 -42.988281 19.5625 -42.625 C 20.050781 -42.257812 20.390625 -41.707031 20.578125 -40.96875 C 16.722656 -40.96875 13.382812 -37.875 10.5625 -31.6875 C 7.75 -25.507812 6.34375 -19.414062 6.34375 -13.40625 C 6.34375 -6.125 8.332031 -2.484375 12.3125 -2.484375 C 14.570312 -2.484375 16.925781 -4.210938 19.375 -7.671875 C 21.832031 -11.128906 23.867188 -15.675781 25.484375 -21.3125 C 27.109375 -26.945312 27.921875 -32.613281 27.921875 -38.3125 L 27.921875 -39.40625 C 26.023438 -40.632812 24.460938 -42.164062 23.234375 -44 C 22.015625 -45.84375 21.40625 -47.191406 21.40625 -48.046875 C 21.40625 -48.898438 21.785156 -49.707031 22.546875 -50.46875 C 23.316406 -51.238281 24.097656 -51.625 24.890625 -51.625 C 26.054688 -51.625 27.191406 -50.582031 28.296875 -48.5 C 29.398438 -46.414062 30.164062 -44.0625 30.59375 -41.4375 C 32.488281 -40.144531 34.15625 -39.5 35.59375 -39.5 C 37.03125 -39.5 38.179688 -39.742188 39.046875 -40.234375 C 39.046875 -39.378906 38.738281 -38.613281 38.125 -37.9375 C 37.507812 -37.257812 36.554688 -36.921875 35.265625 -36.921875 C 33.984375 -36.921875 32.519531 -37.226562 30.875 -37.84375 C 30.8125 -31.96875 29.921875 -26.054688 28.203125 -20.109375 C 26.484375 -14.171875 24.09375 -9.195312 21.03125 -5.1875 C 17.96875 -1.175781 14.722656 0.828125 11.296875 0.828125 Z M 11.296875 0.828125 "/></g></g></g><g fill="#ebaa6e" fill-opacity="1"><g transform="translate(494.527231, 294.873834)"><g><path d="M 17.453125 -8.453125 C 17.453125 -4.773438 18.429688 -2.9375 20.390625 -2.9375 C 22.898438 -2.9375 25.65625 -6.304688 28.65625 -13.046875 C 32.15625 -20.765625 33.90625 -27.988281 33.90625 -34.71875 C 33.90625 -39.3125 32.691406 -41.609375 30.265625 -41.609375 C 27.847656 -41.609375 25.195312 -39.738281 22.3125 -36 C 19.4375 -32.269531 16.878906 -27.9375 14.640625 -23 C 12.410156 -18.070312 10.5 -13.421875 8.90625 -9.046875 C 7.320312 -4.671875 6.359375 -1.425781 6.015625 0.6875 C 5.679688 2.800781 5.421875 4.394531 5.234375 5.46875 C 5.054688 6.539062 4.765625 8.238281 4.359375 10.5625 C 3.960938 12.894531 3.59375 14.671875 3.25 15.890625 C 2.914062 17.117188 2.472656 18.664062 1.921875 20.53125 C 1.378906 22.394531 0.816406 23.832031 0.234375 24.84375 C -0.347656 25.851562 -1.007812 26.878906 -1.75 27.921875 C -3.21875 29.941406 -5.082031 30.953125 -7.34375 30.953125 C -10.28125 30.953125 -11.75 29.269531 -11.75 25.90625 C -11.75 19.90625 -7.160156 8.609375 2.015625 -7.984375 C 2.941406 -14.722656 3.894531 -20.175781 4.875 -24.34375 C 7.007812 -34.207031 9.285156 -41.847656 11.703125 -47.265625 C 14.128906 -52.679688 16.320312 -55.390625 18.28125 -55.390625 C 19.257812 -55.390625 19.75 -54.804688 19.75 -53.640625 C 16.8125 -45.867188 13.78125 -36.007812 10.65625 -24.0625 L 10.109375 -21.953125 L 11.296875 -21.953125 C 18.273438 -37.140625 24.859375 -44.734375 31.046875 -44.734375 C 36.804688 -44.734375 39.6875 -40.171875 39.6875 -31.046875 C 39.6875 -24.429688 38.003906 -17.816406 34.640625 -11.203125 C 30.898438 -3.734375 26.425781 0 21.21875 0 C 17 0 14.890625 -2.753906 14.890625 -8.265625 C 14.890625 -11.203125 15.695312 -14.582031 17.3125 -18.40625 C 18.9375 -22.238281 21.066406 -25.078125 23.703125 -26.921875 C 24.253906 -27.222656 24.710938 -27.097656 25.078125 -26.546875 C 25.140625 -26.242188 25.109375 -26.03125 24.984375 -25.90625 C 22.660156 -24.070312 20.820312 -21.378906 19.46875 -17.828125 C 18.125 -14.273438 17.453125 -11.148438 17.453125 -8.453125 Z M -9.28125 25.078125 C -9.28125 26.910156 -8.601562 27.828125 -7.25 27.828125 C -4.5 27.828125 -2.445312 24.09375 -1.09375 16.625 C -0.601562 14.050781 0.25 7.5625 1.46875 -2.84375 C -4.101562 7.925781 -7.5625 16.285156 -8.90625 22.234375 C -9.15625 23.335938 -9.28125 24.285156 -9.28125 25.078125 Z M -9.28125 25.078125 "/></g></g></g><g fill="#000000" fill-opacity="1"><g transform="translate(323.254258, 325.097868)"><g><path d="M 4.71875 -0.875 C 5.34375 -0.875 5.835938 -1.019531 6.203125 -1.3125 C 6.578125 -1.613281 6.765625 -2.0625 6.765625 -2.65625 C 6.765625 -2.945312 6.707031 -3.203125 6.59375 -3.421875 C 6.488281 -3.648438 6.34375 -3.835938 6.15625 -3.984375 C 5.96875 -4.140625 5.75 -4.253906 5.5 -4.328125 C 5.257812 -4.398438 5.007812 -4.4375 4.75 -4.4375 L 2.359375 -4.4375 L 2.359375 -0.875 Z M 4.609375 -5.3125 C 5.222656 -5.3125 5.703125 -5.445312 6.046875 -5.71875 C 6.390625 -5.988281 6.5625 -6.394531 6.5625 -6.9375 C 6.5625 -7.476562 6.390625 -7.882812 6.046875 -8.15625 C 5.703125 -8.425781 5.222656 -8.5625 4.609375 -8.5625 L 2.359375 -8.5625 L 2.359375 -5.3125 Z M 0.9375 -9.4375 L 4.59375 -9.4375 C 4.988281 -9.4375 5.367188 -9.394531 5.734375 -9.3125 C 6.097656 -9.226562 6.414062 -9.085938 6.6875 -8.890625 C 6.96875 -8.691406 7.1875 -8.425781 7.34375 -8.09375 C 7.507812 -7.769531 7.59375 -7.375 7.59375 -6.90625 C 7.59375 -6.382812 7.460938 -5.945312 7.203125 -5.59375 C 6.953125 -5.25 6.597656 -5.019531 6.140625 -4.90625 L 6.140625 -4.875 C 6.703125 -4.726562 7.117188 -4.472656 7.390625 -4.109375 C 7.671875 -3.753906 7.8125 -3.265625 7.8125 -2.640625 C 7.8125 -2.210938 7.734375 -1.832031 7.578125 -1.5 C 7.429688 -1.164062 7.222656 -0.890625 6.953125 -0.671875 C 6.679688 -0.453125 6.351562 -0.285156 5.96875 -0.171875 C 5.59375 -0.0546875 5.171875 0 4.703125 0 L 0.9375 0 L 0.9375 -0.15625 C 1.09375 -0.164062 1.195312 -0.195312 1.25 -0.25 C 1.300781 -0.3125 1.328125 -0.429688 1.328125 -0.609375 L 1.328125 -8.8125 C 1.328125 -8.988281 1.300781 -9.109375 1.25 -9.171875 C 1.207031 -9.234375 1.101562 -9.269531 0.9375 -9.28125 Z M 0.9375 -9.4375 "/></g></g></g><g fill="#000000" fill-opacity="1"><g transform="translate(331.906574, 325.097868)"><g><path d="M 6.515625 -8.140625 L 6.515625 -6.921875 L 6.375 -6.921875 C 6.351562 -7.035156 6.3125 -7.101562 6.25 -7.125 C 6.195312 -7.144531 6.117188 -7.15625 6.015625 -7.15625 L 2.09375 -7.15625 L 2.09375 -4.46875 L 4.75 -4.46875 C 4.851562 -4.46875 4.929688 -4.476562 4.984375 -4.5 C 5.035156 -4.53125 5.066406 -4.59375 5.078125 -4.6875 L 5.234375 -4.6875 L 5.234375 -3.46875 L 5.078125 -3.46875 C 5.066406 -3.570312 5.035156 -3.632812 4.984375 -3.65625 C 4.929688 -3.6875 4.859375 -3.703125 4.765625 -3.703125 L 2.09375 -3.703125 L 2.09375 -0.75 L 6.140625 -0.75 C 6.234375 -0.75 6.304688 -0.757812 6.359375 -0.78125 C 6.410156 -0.8125 6.441406 -0.878906 6.453125 -0.984375 L 6.609375 -0.984375 L 6.609375 0.234375 L 6.453125 0.234375 C 6.441406 0.128906 6.410156 0.0625 6.359375 0.03125 C 6.304688 0.0078125 6.234375 0 6.140625 0 L 0.875 0 L 0.875 -0.15625 C 1.007812 -0.164062 1.097656 -0.1875 1.140625 -0.21875 C 1.191406 -0.25 1.21875 -0.328125 1.21875 -0.453125 L 1.21875 -7.453125 C 1.21875 -7.578125 1.195312 -7.65625 1.15625 -7.6875 C 1.113281 -7.726562 1.019531 -7.75 0.875 -7.75 L 0.875 -7.90625 L 6.015625 -7.90625 C 6.140625 -7.90625 6.222656 -7.914062 6.265625 -7.9375 C 6.316406 -7.96875 6.351562 -8.035156 6.375 -8.140625 Z M 6.515625 -8.140625 "/></g></g></g><g fill="#000000" fill-opacity="1"><g transform="translate(339.119005, 325.097868)"><g><path d="M 3.203125 -8.046875 C 3.734375 -8.046875 4.171875 -7.972656 4.515625 -7.828125 C 4.867188 -7.691406 5.160156 -7.550781 5.390625 -7.40625 C 5.578125 -7.289062 5.707031 -7.234375 5.78125 -7.234375 C 5.820312 -7.234375 5.851562 -7.238281 5.875 -7.25 C 5.894531 -7.269531 5.914062 -7.285156 5.9375 -7.296875 L 6.015625 -7.265625 L 5.4375 -6.046875 L 5.328125 -6.09375 C 5.328125 -6.3125 5.21875 -6.507812 5 -6.6875 C 4.882812 -6.789062 4.742188 -6.878906 4.578125 -6.953125 C 4.421875 -7.023438 4.257812 -7.085938 4.09375 -7.140625 C 3.9375 -7.191406 3.78125 -7.226562 3.625 -7.25 C 3.46875 -7.269531 3.34375 -7.28125 3.25 -7.28125 C 2.976562 -7.28125 2.726562 -7.25 2.5 -7.1875 C 2.28125 -7.125 2.085938 -7.03125 1.921875 -6.90625 C 1.753906 -6.789062 1.625 -6.644531 1.53125 -6.46875 C 1.4375 -6.289062 1.390625 -6.09375 1.390625 -5.875 C 1.390625 -5.476562 1.539062 -5.191406 1.84375 -5.015625 C 2.15625 -4.847656 2.59375 -4.710938 3.15625 -4.609375 C 3.539062 -4.546875 3.90625 -4.46875 4.25 -4.375 C 4.601562 -4.28125 4.910156 -4.15625 5.171875 -4 C 5.441406 -3.84375 5.65625 -3.628906 5.8125 -3.359375 C 5.976562 -3.085938 6.0625 -2.742188 6.0625 -2.328125 C 6.0625 -1.910156 5.976562 -1.546875 5.8125 -1.234375 C 5.644531 -0.929688 5.425781 -0.675781 5.15625 -0.46875 C 4.894531 -0.269531 4.585938 -0.117188 4.234375 -0.015625 C 3.878906 0.078125 3.515625 0.125 3.140625 0.125 C 2.703125 0.125 2.3125 0.0664062 1.96875 -0.046875 C 1.625 -0.160156 1.316406 -0.285156 1.046875 -0.421875 C 0.890625 -0.492188 0.769531 -0.550781 0.6875 -0.59375 C 0.601562 -0.644531 0.539062 -0.671875 0.5 -0.671875 C 0.445312 -0.671875 0.398438 -0.65625 0.359375 -0.625 L 0.265625 -0.6875 L 0.96875 -1.921875 L 1.09375 -1.828125 C 1.09375 -1.816406 1.085938 -1.800781 1.078125 -1.78125 C 1.078125 -1.757812 1.078125 -1.734375 1.078125 -1.703125 C 1.078125 -1.554688 1.144531 -1.421875 1.28125 -1.296875 C 1.414062 -1.171875 1.582031 -1.054688 1.78125 -0.953125 C 1.988281 -0.847656 2.222656 -0.765625 2.484375 -0.703125 C 2.742188 -0.648438 3.003906 -0.625 3.265625 -0.625 C 3.535156 -0.625 3.785156 -0.660156 4.015625 -0.734375 C 4.242188 -0.804688 4.441406 -0.910156 4.609375 -1.046875 C 4.785156 -1.191406 4.921875 -1.363281 5.015625 -1.5625 C 5.117188 -1.769531 5.171875 -2 5.171875 -2.25 C 5.171875 -2.539062 5.113281 -2.769531 5 -2.9375 C 4.882812 -3.101562 4.71875 -3.238281 4.5 -3.34375 C 4.289062 -3.457031 4.039062 -3.546875 3.75 -3.609375 C 3.457031 -3.671875 3.128906 -3.726562 2.765625 -3.78125 C 1.960938 -3.925781 1.382812 -4.148438 1.03125 -4.453125 C 0.675781 -4.765625 0.5 -5.238281 0.5 -5.875 C 0.5 -6.195312 0.570312 -6.488281 0.71875 -6.75 C 0.875 -7.019531 1.078125 -7.25 1.328125 -7.4375 C 1.578125 -7.632812 1.863281 -7.785156 2.1875 -7.890625 C 2.507812 -7.992188 2.847656 -8.046875 3.203125 -8.046875 Z M 3.203125 -8.046875 "/></g></g></g><g fill="#000000" fill-opacity="1"><g transform="translate(345.605006, 325.097868)"><g><path d="M 0.28125 -8.140625 L 0.4375 -8.140625 C 0.457031 -8.035156 0.492188 -7.96875 0.546875 -7.9375 C 0.597656 -7.914062 0.675781 -7.90625 0.78125 -7.90625 L 5.703125 -7.90625 C 5.828125 -7.90625 5.910156 -7.921875 5.953125 -7.953125 C 5.992188 -7.984375 6.023438 -8.046875 6.046875 -8.140625 L 6.203125 -8.140625 L 6.203125 -6.921875 L 6.046875 -6.921875 C 6.023438 -7.023438 5.988281 -7.085938 5.9375 -7.109375 C 5.882812 -7.140625 5.804688 -7.15625 5.703125 -7.15625 L 3.6875 -7.15625 L 3.6875 -0.5 C 3.6875 -0.382812 3.703125 -0.300781 3.734375 -0.25 C 3.773438 -0.207031 3.867188 -0.175781 4.015625 -0.15625 L 4.015625 0 L 2.46875 0 L 2.46875 -0.15625 C 2.601562 -0.175781 2.691406 -0.203125 2.734375 -0.234375 C 2.773438 -0.273438 2.796875 -0.363281 2.796875 -0.5 L 2.796875 -7.15625 L 0.78125 -7.15625 C 0.675781 -7.15625 0.597656 -7.140625 0.546875 -7.109375 C 0.492188 -7.085938 0.457031 -7.023438 0.4375 -6.921875 L 0.28125 -6.921875 Z M 0.28125 -8.140625 "/></g></g></g><g fill="#000000" fill-opacity="1"><g transform="translate(352.091007, 325.097868)"><g/></g></g><g fill="#000000" fill-opacity="1"><g transform="translate(356.047468, 325.097868)"><g><path d="M 4.328125 -9.578125 C 4.773438 -9.578125 5.175781 -9.503906 5.53125 -9.359375 C 5.882812 -9.210938 6.191406 -9.0625 6.453125 -8.90625 C 6.535156 -8.863281 6.617188 -8.8125 6.703125 -8.75 C 6.785156 -8.695312 6.863281 -8.644531 6.9375 -8.59375 C 7.019531 -8.550781 7.085938 -8.515625 7.140625 -8.484375 C 7.191406 -8.453125 7.234375 -8.4375 7.265625 -8.4375 C 7.328125 -8.4375 7.382812 -8.441406 7.4375 -8.453125 L 7.515625 -8.40625 L 6.578125 -7 L 6.453125 -7.109375 C 6.484375 -7.179688 6.5 -7.28125 6.5 -7.40625 C 6.5 -7.476562 6.441406 -7.585938 6.328125 -7.734375 C 6.210938 -7.878906 6.054688 -8.019531 5.859375 -8.15625 C 5.660156 -8.300781 5.421875 -8.425781 5.140625 -8.53125 C 4.859375 -8.632812 4.550781 -8.6875 4.21875 -8.6875 C 3.6875 -8.6875 3.242188 -8.554688 2.890625 -8.296875 C 2.535156 -8.046875 2.25 -7.722656 2.03125 -7.328125 C 1.820312 -6.941406 1.671875 -6.515625 1.578125 -6.046875 C 1.492188 -5.585938 1.453125 -5.144531 1.453125 -4.71875 C 1.453125 -4.25 1.5 -3.773438 1.59375 -3.296875 C 1.695312 -2.828125 1.859375 -2.40625 2.078125 -2.03125 C 2.296875 -1.65625 2.578125 -1.347656 2.921875 -1.109375 C 3.273438 -0.867188 3.707031 -0.75 4.21875 -0.75 C 4.507812 -0.75 4.789062 -0.789062 5.0625 -0.875 C 5.332031 -0.957031 5.570312 -1.066406 5.78125 -1.203125 C 6 -1.335938 6.171875 -1.492188 6.296875 -1.671875 C 6.429688 -1.859375 6.5 -2.046875 6.5 -2.234375 L 6.5 -2.5 L 6.59375 -2.5625 L 7.609375 -1.265625 L 7.515625 -1.21875 L 7.5 -1.21875 C 7.488281 -1.21875 7.476562 -1.21875 7.46875 -1.21875 C 7.457031 -1.226562 7.445312 -1.234375 7.4375 -1.234375 C 7.351562 -1.234375 7.25 -1.179688 7.125 -1.078125 C 7 -0.972656 6.878906 -0.878906 6.765625 -0.796875 C 6.398438 -0.492188 6.019531 -0.265625 5.625 -0.109375 C 5.238281 0.046875 4.8125 0.125 4.34375 0.125 C 3.675781 0.125 3.097656 0 2.609375 -0.25 C 2.117188 -0.5 1.707031 -0.835938 1.375 -1.265625 C 1.050781 -1.703125 0.8125 -2.21875 0.65625 -2.8125 C 0.5 -3.40625 0.421875 -4.039062 0.421875 -4.71875 C 0.421875 -5.394531 0.5 -6.03125 0.65625 -6.625 C 0.8125 -7.21875 1.050781 -7.726562 1.375 -8.15625 C 1.707031 -8.59375 2.113281 -8.9375 2.59375 -9.1875 C 3.082031 -9.445312 3.660156 -9.578125 4.328125 -9.578125 Z M 4.328125 -9.578125 "/></g></g></g><g fill="#000000" fill-opacity="1"><g transform="translate(363.973353, 325.097868)"><g><path d="M 3.921875 -4.25 C 5.148438 -4.25 5.765625 -4.726562 5.765625 -5.6875 C 5.765625 -6.15625 5.582031 -6.515625 5.21875 -6.765625 C 4.863281 -7.023438 4.394531 -7.15625 3.8125 -7.15625 L 2.015625 -7.15625 L 2.015625 -4.25 Z M 4.125 -7.90625 C 4.507812 -7.90625 4.859375 -7.847656 5.171875 -7.734375 C 5.484375 -7.628906 5.75 -7.472656 5.96875 -7.265625 C 6.1875 -7.054688 6.351562 -6.8125 6.46875 -6.53125 C 6.582031 -6.25 6.640625 -5.941406 6.640625 -5.609375 C 6.640625 -5.097656 6.492188 -4.65625 6.203125 -4.28125 C 5.910156 -3.90625 5.492188 -3.664062 4.953125 -3.5625 L 6.484375 -0.546875 C 6.554688 -0.398438 6.628906 -0.300781 6.703125 -0.25 C 6.785156 -0.195312 6.894531 -0.160156 7.03125 -0.140625 L 7.03125 0 L 5.5 0 L 5.5 -0.15625 C 5.59375 -0.1875 5.640625 -0.238281 5.640625 -0.3125 C 5.640625 -0.332031 5.628906 -0.359375 5.609375 -0.390625 C 5.597656 -0.429688 5.570312 -0.492188 5.53125 -0.578125 C 5.445312 -0.722656 5.335938 -0.914062 5.203125 -1.15625 C 5.066406 -1.394531 4.894531 -1.722656 4.6875 -2.140625 C 4.5 -2.503906 4.347656 -2.800781 4.234375 -3.03125 C 4.117188 -3.269531 4.039062 -3.425781 4 -3.5 L 2.015625 -3.5 L 2.015625 -0.5 C 2.015625 -0.382812 2.03125 -0.300781 2.0625 -0.25 C 2.09375 -0.207031 2.164062 -0.175781 2.28125 -0.15625 L 2.28125 0 L 0.875 0 L 0.875 -0.15625 C 0.988281 -0.175781 1.0625 -0.207031 1.09375 -0.25 C 1.125 -0.300781 1.140625 -0.382812 1.140625 -0.5 L 1.140625 -7.421875 C 1.140625 -7.535156 1.125 -7.613281 1.09375 -7.65625 C 1.0625 -7.707031 0.988281 -7.738281 0.875 -7.75 L 0.875 -7.90625 Z M 4.125 -7.90625 "/></g></g></g><g fill="#000000" fill-opacity="1"><g transform="translate(371.185784, 325.097868)"><g><path d="M 1.375 -3.953125 C 1.375 -3.578125 1.421875 -3.191406 1.515625 -2.796875 C 1.617188 -2.398438 1.773438 -2.039062 1.984375 -1.71875 C 2.191406 -1.394531 2.457031 -1.128906 2.78125 -0.921875 C 3.113281 -0.722656 3.507812 -0.625 3.96875 -0.625 C 4.40625 -0.625 4.785156 -0.71875 5.109375 -0.90625 C 5.441406 -1.101562 5.710938 -1.359375 5.921875 -1.671875 C 6.140625 -1.992188 6.300781 -2.351562 6.40625 -2.75 C 6.507812 -3.144531 6.5625 -3.546875 6.5625 -3.953125 C 6.5625 -4.347656 6.507812 -4.742188 6.40625 -5.140625 C 6.300781 -5.546875 6.140625 -5.90625 5.921875 -6.21875 C 5.710938 -6.53125 5.441406 -6.785156 5.109375 -6.984375 C 4.785156 -7.179688 4.398438 -7.28125 3.953125 -7.28125 C 3.503906 -7.28125 3.117188 -7.179688 2.796875 -6.984375 C 2.472656 -6.785156 2.203125 -6.523438 1.984375 -6.203125 C 1.773438 -5.890625 1.617188 -5.535156 1.515625 -5.140625 C 1.421875 -4.742188 1.375 -4.347656 1.375 -3.953125 Z M 3.96875 -8.046875 C 4.53125 -8.046875 5.023438 -7.925781 5.453125 -7.6875 C 5.890625 -7.445312 6.253906 -7.132812 6.546875 -6.75 C 6.835938 -6.375 7.054688 -5.9375 7.203125 -5.4375 C 7.359375 -4.945312 7.4375 -4.453125 7.4375 -3.953125 C 7.4375 -3.472656 7.363281 -2.988281 7.21875 -2.5 C 7.082031 -2.019531 6.867188 -1.582031 6.578125 -1.1875 C 6.285156 -0.800781 5.921875 -0.484375 5.484375 -0.234375 C 5.054688 0.00390625 4.550781 0.125 3.96875 0.125 C 3.382812 0.125 2.875 0.00390625 2.4375 -0.234375 C 2.007812 -0.484375 1.648438 -0.800781 1.359375 -1.1875 C 1.078125 -1.582031 0.863281 -2.019531 0.71875 -2.5 C 0.570312 -2.988281 0.5 -3.472656 0.5 -3.953125 C 0.5 -4.453125 0.570312 -4.945312 0.71875 -5.4375 C 0.875 -5.925781 1.09375 -6.363281 1.375 -6.75 C 1.664062 -7.132812 2.023438 -7.445312 2.453125 -7.6875 C 2.890625 -7.925781 3.394531 -8.046875 3.96875 -8.046875 Z M 3.96875 -8.046875 "/></g></g></g><g fill="#000000" fill-opacity="1"><g transform="translate(379.11167, 325.097868)"><g><path d="M 3.859375 -8.046875 C 4.367188 -8.046875 4.820312 -7.957031 5.21875 -7.78125 C 5.613281 -7.601562 5.945312 -7.398438 6.21875 -7.171875 C 6.28125 -7.128906 6.335938 -7.082031 6.390625 -7.03125 C 6.453125 -6.988281 6.492188 -6.96875 6.515625 -6.96875 C 6.535156 -6.96875 6.566406 -6.988281 6.609375 -7.03125 L 6.734375 -6.953125 L 5.9375 -5.9375 L 5.84375 -6.015625 L 5.84375 -6.125 C 5.84375 -6.25 5.785156 -6.378906 5.671875 -6.515625 C 5.566406 -6.648438 5.425781 -6.773438 5.25 -6.890625 C 5.070312 -7.003906 4.863281 -7.097656 4.625 -7.171875 C 4.394531 -7.242188 4.148438 -7.28125 3.890625 -7.28125 C 3.460938 -7.28125 3.085938 -7.171875 2.765625 -6.953125 C 2.453125 -6.742188 2.191406 -6.476562 1.984375 -6.15625 C 1.773438 -5.832031 1.617188 -5.476562 1.515625 -5.09375 C 1.421875 -4.71875 1.375 -4.359375 1.375 -4.015625 C 1.375 -3.554688 1.429688 -3.117188 1.546875 -2.703125 C 1.660156 -2.296875 1.820312 -1.9375 2.03125 -1.625 C 2.238281 -1.320312 2.492188 -1.078125 2.796875 -0.890625 C 3.109375 -0.710938 3.460938 -0.625 3.859375 -0.625 C 4.117188 -0.625 4.375 -0.660156 4.625 -0.734375 C 4.875 -0.816406 5.097656 -0.914062 5.296875 -1.03125 C 5.492188 -1.15625 5.648438 -1.285156 5.765625 -1.421875 C 5.878906 -1.566406 5.9375 -1.703125 5.9375 -1.828125 C 5.9375 -1.859375 5.929688 -1.894531 5.921875 -1.9375 C 5.910156 -1.988281 5.894531 -2.039062 5.875 -2.09375 L 5.96875 -2.171875 L 6.765625 -1.1875 L 6.6875 -1.109375 L 6.609375 -1.109375 C 6.546875 -1.109375 6.476562 -1.078125 6.40625 -1.015625 C 6.332031 -0.960938 6.210938 -0.863281 6.046875 -0.71875 C 5.691406 -0.40625 5.332031 -0.1875 4.96875 -0.0625 C 4.613281 0.0625 4.242188 0.125 3.859375 0.125 C 3.316406 0.125 2.835938 0.0195312 2.421875 -0.1875 C 2.003906 -0.40625 1.65625 -0.695312 1.375 -1.0625 C 1.09375 -1.4375 0.875 -1.867188 0.71875 -2.359375 C 0.570312 -2.859375 0.5 -3.390625 0.5 -3.953125 C 0.5 -4.503906 0.570312 -5.03125 0.71875 -5.53125 C 0.875 -6.03125 1.097656 -6.460938 1.390625 -6.828125 C 1.679688 -7.203125 2.035156 -7.5 2.453125 -7.71875 C 2.867188 -7.9375 3.335938 -8.046875 3.859375 -8.046875 Z M 3.859375 -8.046875 "/></g></g></g><g fill="#000000" fill-opacity="1"><g transform="translate(386.324101, 325.097868)"><g><path d="M 2.375 -7.90625 L 2.375 -7.75 C 2.257812 -7.738281 2.179688 -7.707031 2.140625 -7.65625 C 2.109375 -7.613281 2.09375 -7.53125 2.09375 -7.40625 L 2.09375 -4.03125 L 2.15625 -4 L 5.015625 -7.265625 C 5.097656 -7.359375 5.164062 -7.4375 5.21875 -7.5 C 5.269531 -7.5625 5.296875 -7.613281 5.296875 -7.65625 C 5.296875 -7.71875 5.25 -7.75 5.15625 -7.75 L 5.15625 -7.90625 L 6.65625 -7.90625 L 6.65625 -7.71875 C 6.519531 -7.707031 6.394531 -7.640625 6.28125 -7.515625 C 6.175781 -7.390625 6.050781 -7.25 5.90625 -7.09375 L 3.859375 -4.796875 L 6.421875 -0.578125 C 6.503906 -0.429688 6.578125 -0.328125 6.640625 -0.265625 C 6.710938 -0.210938 6.828125 -0.175781 6.984375 -0.15625 L 6.984375 0 L 5.390625 0 L 5.390625 -0.15625 C 5.515625 -0.15625 5.578125 -0.1875 5.578125 -0.25 C 5.578125 -0.3125 5.535156 -0.40625 5.453125 -0.53125 C 5.378906 -0.65625 5.300781 -0.785156 5.21875 -0.921875 C 5.125 -1.066406 5 -1.269531 4.84375 -1.53125 C 4.6875 -1.800781 4.507812 -2.097656 4.3125 -2.421875 L 3.25 -4.140625 L 2.09375 -2.84375 L 2.09375 -0.515625 C 2.09375 -0.390625 2.109375 -0.300781 2.140625 -0.25 C 2.171875 -0.207031 2.238281 -0.175781 2.34375 -0.15625 L 2.34375 0 L 0.875 0 L 0.875 -0.15625 C 1.019531 -0.175781 1.113281 -0.203125 1.15625 -0.234375 C 1.195312 -0.273438 1.21875 -0.363281 1.21875 -0.5 L 1.21875 -7.40625 C 1.21875 -7.53125 1.195312 -7.613281 1.15625 -7.65625 C 1.125 -7.707031 1.03125 -7.738281 0.875 -7.75 L 0.875 -7.90625 Z M 2.375 -7.90625 "/></g></g></g><g fill="#000000" fill-opacity="1"><g transform="translate(393.536533, 325.097868)"><g><path d="M 6.515625 -8.140625 L 6.515625 -6.921875 L 6.375 -6.921875 C 6.351562 -7.035156 6.3125 -7.101562 6.25 -7.125 C 6.195312 -7.144531 6.117188 -7.15625 6.015625 -7.15625 L 2.09375 -7.15625 L 2.09375 -4.46875 L 4.75 -4.46875 C 4.851562 -4.46875 4.929688 -4.476562 4.984375 -4.5 C 5.035156 -4.53125 5.066406 -4.59375 5.078125 -4.6875 L 5.234375 -4.6875 L 5.234375 -3.46875 L 5.078125 -3.46875 C 5.066406 -3.570312 5.035156 -3.632812 4.984375 -3.65625 C 4.929688 -3.6875 4.859375 -3.703125 4.765625 -3.703125 L 2.09375 -3.703125 L 2.09375 -0.75 L 6.140625 -0.75 C 6.234375 -0.75 6.304688 -0.757812 6.359375 -0.78125 C 6.410156 -0.8125 6.441406 -0.878906 6.453125 -0.984375 L 6.609375 -0.984375 L 6.609375 0.234375 L 6.453125 0.234375 C 6.441406 0.128906 6.410156 0.0625 6.359375 0.03125 C 6.304688 0.0078125 6.234375 0 6.140625 0 L 0.875 0 L 0.875 -0.15625 C 1.007812 -0.164062 1.097656 -0.1875 1.140625 -0.21875 C 1.191406 -0.25 1.21875 -0.328125 1.21875 -0.453125 L 1.21875 -7.453125 C 1.21875 -7.578125 1.195312 -7.65625 1.15625 -7.6875 C 1.113281 -7.726562 1.019531 -7.75 0.875 -7.75 L 0.875 -7.90625 L 6.015625 -7.90625 C 6.140625 -7.90625 6.222656 -7.914062 6.265625 -7.9375 C 6.316406 -7.96875 6.351562 -8.035156 6.375 -8.140625 Z M 6.515625 -8.140625 "/></g></g></g><g fill="#000000" fill-opacity="1"><g transform="translate(400.748964, 325.097868)"><g><path d="M 3.921875 -4.25 C 5.148438 -4.25 5.765625 -4.726562 5.765625 -5.6875 C 5.765625 -6.15625 5.582031 -6.515625 5.21875 -6.765625 C 4.863281 -7.023438 4.394531 -7.15625 3.8125 -7.15625 L 2.015625 -7.15625 L 2.015625 -4.25 Z M 4.125 -7.90625 C 4.507812 -7.90625 4.859375 -7.847656 5.171875 -7.734375 C 5.484375 -7.628906 5.75 -7.472656 5.96875 -7.265625 C 6.1875 -7.054688 6.351562 -6.8125 6.46875 -6.53125 C 6.582031 -6.25 6.640625 -5.941406 6.640625 -5.609375 C 6.640625 -5.097656 6.492188 -4.65625 6.203125 -4.28125 C 5.910156 -3.90625 5.492188 -3.664062 4.953125 -3.5625 L 6.484375 -0.546875 C 6.554688 -0.398438 6.628906 -0.300781 6.703125 -0.25 C 6.785156 -0.195312 6.894531 -0.160156 7.03125 -0.140625 L 7.03125 0 L 5.5 0 L 5.5 -0.15625 C 5.59375 -0.1875 5.640625 -0.238281 5.640625 -0.3125 C 5.640625 -0.332031 5.628906 -0.359375 5.609375 -0.390625 C 5.597656 -0.429688 5.570312 -0.492188 5.53125 -0.578125 C 5.445312 -0.722656 5.335938 -0.914062 5.203125 -1.15625 C 5.066406 -1.394531 4.894531 -1.722656 4.6875 -2.140625 C 4.5 -2.503906 4.347656 -2.800781 4.234375 -3.03125 C 4.117188 -3.269531 4.039062 -3.425781 4 -3.5 L 2.015625 -3.5 L 2.015625 -0.5 C 2.015625 -0.382812 2.03125 -0.300781 2.0625 -0.25 C 2.09375 -0.207031 2.164062 -0.175781 2.28125 -0.15625 L 2.28125 0 L 0.875 0 L 0.875 -0.15625 C 0.988281 -0.175781 1.0625 -0.207031 1.09375 -0.25 C 1.125 -0.300781 1.140625 -0.382812 1.140625 -0.5 L 1.140625 -7.421875 C 1.140625 -7.535156 1.125 -7.613281 1.09375 -7.65625 C 1.0625 -7.707031 0.988281 -7.738281 0.875 -7.75 L 0.875 -7.90625 Z M 4.125 -7.90625 "/></g></g></g><g fill="#000000" fill-opacity="1"><g transform="translate(407.961396, 325.097868)"><g><path d="M 1.84375 -7.90625 L 1.84375 -7.75 C 1.675781 -7.738281 1.59375 -7.6875 1.59375 -7.59375 C 1.59375 -7.507812 1.660156 -7.359375 1.796875 -7.140625 C 1.859375 -7.023438 2.007812 -6.742188 2.25 -6.296875 C 2.5 -5.847656 2.847656 -5.21875 3.296875 -4.40625 C 3.566406 -4.882812 3.796875 -5.285156 3.984375 -5.609375 C 4.171875 -5.941406 4.328125 -6.210938 4.453125 -6.421875 C 4.578125 -6.640625 4.675781 -6.816406 4.75 -6.953125 C 4.820312 -7.085938 4.882812 -7.195312 4.9375 -7.28125 C 4.976562 -7.34375 5.007812 -7.398438 5.03125 -7.453125 C 5.0625 -7.503906 5.078125 -7.550781 5.078125 -7.59375 C 5.078125 -7.6875 5.003906 -7.738281 4.859375 -7.75 L 4.859375 -7.90625 L 6.3125 -7.90625 L 6.3125 -7.75 C 6.195312 -7.726562 6.101562 -7.671875 6.03125 -7.578125 C 5.96875 -7.492188 5.90625 -7.394531 5.84375 -7.28125 L 3.6875 -3.421875 L 3.6875 -0.484375 C 3.6875 -0.398438 3.707031 -0.320312 3.75 -0.25 C 3.789062 -0.1875 3.863281 -0.15625 3.96875 -0.15625 L 3.96875 0 L 2.5 0 L 2.5 -0.15625 C 2.613281 -0.15625 2.691406 -0.1875 2.734375 -0.25 C 2.773438 -0.320312 2.796875 -0.398438 2.796875 -0.484375 L 2.796875 -3.546875 L 0.734375 -7.28125 C 0.679688 -7.382812 0.609375 -7.488281 0.515625 -7.59375 C 0.429688 -7.695312 0.316406 -7.75 0.171875 -7.75 L 0.171875 -7.90625 Z M 1.84375 -7.90625 "/></g></g></g><g fill="#000000" fill-opacity="1"><g transform="translate(414.447397, 325.097868)"><g/></g></g><g fill="#000000" fill-opacity="1"><g transform="translate(418.403857, 325.097868)"><g><path d="M 4.703125 -5.0625 C 5.410156 -5.0625 5.929688 -5.191406 6.265625 -5.453125 C 6.597656 -5.710938 6.765625 -6.15625 6.765625 -6.78125 C 6.765625 -7.40625 6.578125 -7.859375 6.203125 -8.140625 C 5.828125 -8.421875 5.300781 -8.5625 4.625 -8.5625 L 2.28125 -8.5625 L 2.28125 -5.0625 Z M 4.640625 -9.4375 C 5.140625 -9.4375 5.582031 -9.375 5.96875 -9.25 C 6.363281 -9.125 6.695312 -8.941406 6.96875 -8.703125 C 7.238281 -8.472656 7.445312 -8.191406 7.59375 -7.859375 C 7.738281 -7.535156 7.8125 -7.175781 7.8125 -6.78125 C 7.8125 -5.382812 7.128906 -4.554688 5.765625 -4.296875 L 7.671875 -0.671875 C 7.742188 -0.523438 7.816406 -0.40625 7.890625 -0.3125 C 7.960938 -0.226562 8.066406 -0.175781 8.203125 -0.15625 L 8.203125 0 L 6.484375 0 L 6.484375 -0.15625 C 6.617188 -0.15625 6.6875 -0.210938 6.6875 -0.328125 C 6.6875 -0.367188 6.664062 -0.425781 6.625 -0.5 C 6.59375 -0.582031 6.539062 -0.6875 6.46875 -0.8125 L 4.609375 -4.171875 L 2.28125 -4.171875 L 2.28125 -0.625 C 2.28125 -0.445312 2.300781 -0.328125 2.34375 -0.265625 C 2.394531 -0.203125 2.503906 -0.164062 2.671875 -0.15625 L 2.671875 0 L 0.859375 0 L 0.859375 -0.15625 C 1.023438 -0.164062 1.128906 -0.203125 1.171875 -0.265625 C 1.222656 -0.328125 1.25 -0.445312 1.25 -0.625 L 1.25 -8.8125 C 1.25 -9 1.222656 -9.117188 1.171875 -9.171875 C 1.117188 -9.234375 1.015625 -9.269531 0.859375 -9.28125 L 0.859375 -9.4375 Z M 4.640625 -9.4375 "/></g></g></g><g fill="#000000" fill-opacity="1"><g transform="translate(427.056173, 325.097868)"><g><path d="M 6.515625 -8.140625 L 6.515625 -6.921875 L 6.375 -6.921875 C 6.351562 -7.035156 6.3125 -7.101562 6.25 -7.125 C 6.195312 -7.144531 6.117188 -7.15625 6.015625 -7.15625 L 2.09375 -7.15625 L 2.09375 -4.46875 L 4.75 -4.46875 C 4.851562 -4.46875 4.929688 -4.476562 4.984375 -4.5 C 5.035156 -4.53125 5.066406 -4.59375 5.078125 -4.6875 L 5.234375 -4.6875 L 5.234375 -3.46875 L 5.078125 -3.46875 C 5.066406 -3.570312 5.035156 -3.632812 4.984375 -3.65625 C 4.929688 -3.6875 4.859375 -3.703125 4.765625 -3.703125 L 2.09375 -3.703125 L 2.09375 -0.75 L 6.140625 -0.75 C 6.234375 -0.75 6.304688 -0.757812 6.359375 -0.78125 C 6.410156 -0.8125 6.441406 -0.878906 6.453125 -0.984375 L 6.609375 -0.984375 L 6.609375 0.234375 L 6.453125 0.234375 C 6.441406 0.128906 6.410156 0.0625 6.359375 0.03125 C 6.304688 0.0078125 6.234375 0 6.140625 0 L 0.875 0 L 0.875 -0.15625 C 1.007812 -0.164062 1.097656 -0.1875 1.140625 -0.21875 C 1.191406 -0.25 1.21875 -0.328125 1.21875 -0.453125 L 1.21875 -7.453125 C 1.21875 -7.578125 1.195312 -7.65625 1.15625 -7.6875 C 1.113281 -7.726562 1.019531 -7.75 0.875 -7.75 L 0.875 -7.90625 L 6.015625 -7.90625 C 6.140625 -7.90625 6.222656 -7.914062 6.265625 -7.9375 C 6.316406 -7.96875 6.351562 -8.035156 6.375 -8.140625 Z M 6.515625 -8.140625 "/></g></g></g><g fill="#000000" fill-opacity="1"><g transform="translate(434.268604, 325.097868)"><g><path d="M 3.203125 -8.046875 C 3.734375 -8.046875 4.171875 -7.972656 4.515625 -7.828125 C 4.867188 -7.691406 5.160156 -7.550781 5.390625 -7.40625 C 5.578125 -7.289062 5.707031 -7.234375 5.78125 -7.234375 C 5.820312 -7.234375 5.851562 -7.238281 5.875 -7.25 C 5.894531 -7.269531 5.914062 -7.285156 5.9375 -7.296875 L 6.015625 -7.265625 L 5.4375 -6.046875 L 5.328125 -6.09375 C 5.328125 -6.3125 5.21875 -6.507812 5 -6.6875 C 4.882812 -6.789062 4.742188 -6.878906 4.578125 -6.953125 C 4.421875 -7.023438 4.257812 -7.085938 4.09375 -7.140625 C 3.9375 -7.191406 3.78125 -7.226562 3.625 -7.25 C 3.46875 -7.269531 3.34375 -7.28125 3.25 -7.28125 C 2.976562 -7.28125 2.726562 -7.25 2.5 -7.1875 C 2.28125 -7.125 2.085938 -7.03125 1.921875 -6.90625 C 1.753906 -6.789062 1.625 -6.644531 1.53125 -6.46875 C 1.4375 -6.289062 1.390625 -6.09375 1.390625 -5.875 C 1.390625 -5.476562 1.539062 -5.191406 1.84375 -5.015625 C 2.15625 -4.847656 2.59375 -4.710938 3.15625 -4.609375 C 3.539062 -4.546875 3.90625 -4.46875 4.25 -4.375 C 4.601562 -4.28125 4.910156 -4.15625 5.171875 -4 C 5.441406 -3.84375 5.65625 -3.628906 5.8125 -3.359375 C 5.976562 -3.085938 6.0625 -2.742188 6.0625 -2.328125 C 6.0625 -1.910156 5.976562 -1.546875 5.8125 -1.234375 C 5.644531 -0.929688 5.425781 -0.675781 5.15625 -0.46875 C 4.894531 -0.269531 4.585938 -0.117188 4.234375 -0.015625 C 3.878906 0.078125 3.515625 0.125 3.140625 0.125 C 2.703125 0.125 2.3125 0.0664062 1.96875 -0.046875 C 1.625 -0.160156 1.316406 -0.285156 1.046875 -0.421875 C 0.890625 -0.492188 0.769531 -0.550781 0.6875 -0.59375 C 0.601562 -0.644531 0.539062 -0.671875 0.5 -0.671875 C 0.445312 -0.671875 0.398438 -0.65625 0.359375 -0.625 L 0.265625 -0.6875 L 0.96875 -1.921875 L 1.09375 -1.828125 C 1.09375 -1.816406 1.085938 -1.800781 1.078125 -1.78125 C 1.078125 -1.757812 1.078125 -1.734375 1.078125 -1.703125 C 1.078125 -1.554688 1.144531 -1.421875 1.28125 -1.296875 C 1.414062 -1.171875 1.582031 -1.054688 1.78125 -0.953125 C 1.988281 -0.847656 2.222656 -0.765625 2.484375 -0.703125 C 2.742188 -0.648438 3.003906 -0.625 3.265625 -0.625 C 3.535156 -0.625 3.785156 -0.660156 4.015625 -0.734375 C 4.242188 -0.804688 4.441406 -0.910156 4.609375 -1.046875 C 4.785156 -1.191406 4.921875 -1.363281 5.015625 -1.5625 C 5.117188 -1.769531 5.171875 -2 5.171875 -2.25 C 5.171875 -2.539062 5.113281 -2.769531 5 -2.9375 C 4.882812 -3.101562 4.71875 -3.238281 4.5 -3.34375 C 4.289062 -3.457031 4.039062 -3.546875 3.75 -3.609375 C 3.457031 -3.671875 3.128906 -3.726562 2.765625 -3.78125 C 1.960938 -3.925781 1.382812 -4.148438 1.03125 -4.453125 C 0.675781 -4.765625 0.5 -5.238281 0.5 -5.875 C 0.5 -6.195312 0.570312 -6.488281 0.71875 -6.75 C 0.875 -7.019531 1.078125 -7.25 1.328125 -7.4375 C 1.578125 -7.632812 1.863281 -7.785156 2.1875 -7.890625 C 2.507812 -7.992188 2.847656 -8.046875 3.203125 -8.046875 Z M 3.203125 -8.046875 "/></g></g></g><g fill="#000000" fill-opacity="1"><g transform="translate(440.754605, 325.097868)"><g><path d="M 6.515625 -8.140625 L 6.515625 -6.921875 L 6.375 -6.921875 C 6.351562 -7.035156 6.3125 -7.101562 6.25 -7.125 C 6.195312 -7.144531 6.117188 -7.15625 6.015625 -7.15625 L 2.09375 -7.15625 L 2.09375 -4.46875 L 4.75 -4.46875 C 4.851562 -4.46875 4.929688 -4.476562 4.984375 -4.5 C 5.035156 -4.53125 5.066406 -4.59375 5.078125 -4.6875 L 5.234375 -4.6875 L 5.234375 -3.46875 L 5.078125 -3.46875 C 5.066406 -3.570312 5.035156 -3.632812 4.984375 -3.65625 C 4.929688 -3.6875 4.859375 -3.703125 4.765625 -3.703125 L 2.09375 -3.703125 L 2.09375 -0.75 L 6.140625 -0.75 C 6.234375 -0.75 6.304688 -0.757812 6.359375 -0.78125 C 6.410156 -0.8125 6.441406 -0.878906 6.453125 -0.984375 L 6.609375 -0.984375 L 6.609375 0.234375 L 6.453125 0.234375 C 6.441406 0.128906 6.410156 0.0625 6.359375 0.03125 C 6.304688 0.0078125 6.234375 0 6.140625 0 L 0.875 0 L 0.875 -0.15625 C 1.007812 -0.164062 1.097656 -0.1875 1.140625 -0.21875 C 1.191406 -0.25 1.21875 -0.328125 1.21875 -0.453125 L 1.21875 -7.453125 C 1.21875 -7.578125 1.195312 -7.65625 1.15625 -7.6875 C 1.113281 -7.726562 1.019531 -7.75 0.875 -7.75 L 0.875 -7.90625 L 6.015625 -7.90625 C 6.140625 -7.90625 6.222656 -7.914062 6.265625 -7.9375 C 6.316406 -7.96875 6.351562 -8.035156 6.375 -8.140625 Z M 6.515625 -8.140625 "/></g></g></g><g fill="#000000" fill-opacity="1"><g transform="translate(447.967037, 325.097868)"><g><path d="M 2.4375 -7.90625 L 2.4375 -7.75 C 2.289062 -7.738281 2.195312 -7.707031 2.15625 -7.65625 C 2.113281 -7.613281 2.09375 -7.535156 2.09375 -7.421875 L 2.09375 -0.75 L 5.765625 -0.75 C 5.867188 -0.75 5.941406 -0.757812 5.984375 -0.78125 C 6.035156 -0.8125 6.070312 -0.878906 6.09375 -0.984375 L 6.25 -0.984375 L 6.25 0.234375 L 6.09375 0.234375 C 6.070312 0.128906 6.035156 0.0625 5.984375 0.03125 C 5.929688 0.0078125 5.859375 0 5.765625 0 L 0.875 0 L 0.875 -0.15625 C 1.03125 -0.175781 1.125 -0.207031 1.15625 -0.25 C 1.195312 -0.289062 1.21875 -0.375 1.21875 -0.5 L 1.21875 -7.421875 C 1.21875 -7.535156 1.195312 -7.613281 1.15625 -7.65625 C 1.125 -7.707031 1.03125 -7.738281 0.875 -7.75 L 0.875 -7.90625 Z M 2.4375 -7.90625 "/></g></g></g><g fill="#000000" fill-opacity="1"><g transform="translate(454.453038, 325.097868)"><g><path d="M 2.4375 -7.90625 L 2.4375 -7.75 C 2.289062 -7.738281 2.195312 -7.707031 2.15625 -7.65625 C 2.113281 -7.613281 2.09375 -7.535156 2.09375 -7.421875 L 2.09375 -0.75 L 5.765625 -0.75 C 5.867188 -0.75 5.941406 -0.757812 5.984375 -0.78125 C 6.035156 -0.8125 6.070312 -0.878906 6.09375 -0.984375 L 6.25 -0.984375 L 6.25 0.234375 L 6.09375 0.234375 C 6.070312 0.128906 6.035156 0.0625 5.984375 0.03125 C 5.929688 0.0078125 5.859375 0 5.765625 0 L 0.875 0 L 0.875 -0.15625 C 1.03125 -0.175781 1.125 -0.207031 1.15625 -0.25 C 1.195312 -0.289062 1.21875 -0.375 1.21875 -0.5 L 1.21875 -7.421875 C 1.21875 -7.535156 1.195312 -7.613281 1.15625 -7.65625 C 1.125 -7.707031 1.03125 -7.738281 0.875 -7.75 L 0.875 -7.90625 Z M 2.4375 -7.90625 "/></g></g></g><g fill="#000000" fill-opacity="1"><g transform="translate(460.939039, 325.097868)"><g><path d="M 6.515625 -8.140625 L 6.515625 -6.921875 L 6.375 -6.921875 C 6.351562 -7.035156 6.3125 -7.101562 6.25 -7.125 C 6.195312 -7.144531 6.117188 -7.15625 6.015625 -7.15625 L 2.09375 -7.15625 L 2.09375 -4.46875 L 4.75 -4.46875 C 4.851562 -4.46875 4.929688 -4.476562 4.984375 -4.5 C 5.035156 -4.53125 5.066406 -4.59375 5.078125 -4.6875 L 5.234375 -4.6875 L 5.234375 -3.46875 L 5.078125 -3.46875 C 5.066406 -3.570312 5.035156 -3.632812 4.984375 -3.65625 C 4.929688 -3.6875 4.859375 -3.703125 4.765625 -3.703125 L 2.09375 -3.703125 L 2.09375 -0.75 L 6.140625 -0.75 C 6.234375 -0.75 6.304688 -0.757812 6.359375 -0.78125 C 6.410156 -0.8125 6.441406 -0.878906 6.453125 -0.984375 L 6.609375 -0.984375 L 6.609375 0.234375 L 6.453125 0.234375 C 6.441406 0.128906 6.410156 0.0625 6.359375 0.03125 C 6.304688 0.0078125 6.234375 0 6.140625 0 L 0.875 0 L 0.875 -0.15625 C 1.007812 -0.164062 1.097656 -0.1875 1.140625 -0.21875 C 1.191406 -0.25 1.21875 -0.328125 1.21875 -0.453125 L 1.21875 -7.453125 C 1.21875 -7.578125 1.195312 -7.65625 1.15625 -7.6875 C 1.113281 -7.726562 1.019531 -7.75 0.875 -7.75 L 0.875 -7.90625 L 6.015625 -7.90625 C 6.140625 -7.90625 6.222656 -7.914062 6.265625 -7.9375 C 6.316406 -7.96875 6.351562 -8.035156 6.375 -8.140625 Z M 6.515625 -8.140625 "/></g></g></g><g fill="#000000" fill-opacity="1"><g transform="translate(468.151471, 325.097868)"><g><path d="M 3.921875 -4.25 C 5.148438 -4.25 5.765625 -4.726562 5.765625 -5.6875 C 5.765625 -6.15625 5.582031 -6.515625 5.21875 -6.765625 C 4.863281 -7.023438 4.394531 -7.15625 3.8125 -7.15625 L 2.015625 -7.15625 L 2.015625 -4.25 Z M 4.125 -7.90625 C 4.507812 -7.90625 4.859375 -7.847656 5.171875 -7.734375 C 5.484375 -7.628906 5.75 -7.472656 5.96875 -7.265625 C 6.1875 -7.054688 6.351562 -6.8125 6.46875 -6.53125 C 6.582031 -6.25 6.640625 -5.941406 6.640625 -5.609375 C 6.640625 -5.097656 6.492188 -4.65625 6.203125 -4.28125 C 5.910156 -3.90625 5.492188 -3.664062 4.953125 -3.5625 L 6.484375 -0.546875 C 6.554688 -0.398438 6.628906 -0.300781 6.703125 -0.25 C 6.785156 -0.195312 6.894531 -0.160156 7.03125 -0.140625 L 7.03125 0 L 5.5 0 L 5.5 -0.15625 C 5.59375 -0.1875 5.640625 -0.238281 5.640625 -0.3125 C 5.640625 -0.332031 5.628906 -0.359375 5.609375 -0.390625 C 5.597656 -0.429688 5.570312 -0.492188 5.53125 -0.578125 C 5.445312 -0.722656 5.335938 -0.914062 5.203125 -1.15625 C 5.066406 -1.394531 4.894531 -1.722656 4.6875 -2.140625 C 4.5 -2.503906 4.347656 -2.800781 4.234375 -3.03125 C 4.117188 -3.269531 4.039062 -3.425781 4 -3.5 L 2.015625 -3.5 L 2.015625 -0.5 C 2.015625 -0.382812 2.03125 -0.300781 2.0625 -0.25 C 2.09375 -0.207031 2.164062 -0.175781 2.28125 -0.15625 L 2.28125 0 L 0.875 0 L 0.875 -0.15625 C 0.988281 -0.175781 1.0625 -0.207031 1.09375 -0.25 C 1.125 -0.300781 1.140625 -0.382812 1.140625 -0.5 L 1.140625 -7.421875 C 1.140625 -7.535156 1.125 -7.613281 1.09375 -7.65625 C 1.0625 -7.707031 0.988281 -7.738281 0.875 -7.75 L 0.875 -7.90625 Z M 4.125 -7.90625 "/></g></g></g></svg>