<svg width="180" height="177" viewBox="0 0 180 177" fill="none" xmlns="http://www.w3.org/2000/svg">
<path d="M59.9819 23.8768L1.28176 22.1361L38.2814 22.2925L38.3681 1.79265L173.867 2.36537L173.29 138.864L153.29 138.78L153.132 176.279L151.879 117.773L59.9819 23.8768Z" fill="url(#paint0_linear_312_18)"/>
<path d="M60.2749 23.8854L1.28176 22.1361L38.2814 22.2925L38.3681 1.79265M38.3681 1.79265L173.867 2.36537L173.29 138.864M38.3681 1.79265L151.879 117.773M173.29 138.864L153.29 138.78L153.132 176.279L151.879 117.773M173.29 138.864L151.879 117.773" stroke="#750000"/>
<path d="M108.472 21.97C109.078 21.2379 109.316 20.4351 109.187 19.5617C109.058 18.6883 108.565 17.8189 107.706 16.9535C107.123 16.3654 106.548 15.9514 105.98 15.7115C105.417 15.466 104.885 15.3782 104.382 15.4479C103.884 15.5231 103.452 15.7422 103.086 16.1053C102.77 16.3967 102.567 16.7246 102.477 17.0888C102.393 17.4586 102.391 17.8508 102.472 18.2655C102.559 18.6746 102.703 19.1034 102.906 19.5517C103.114 19.9945 103.361 20.443 103.646 20.8972L104.798 22.7914C105.369 23.6998 105.823 24.6022 106.162 25.4986C106.501 26.395 106.693 27.2714 106.739 28.1278C106.785 28.9843 106.658 29.8097 106.356 30.6039C106.06 31.4037 105.559 32.1584 104.855 32.868C103.806 33.8967 102.638 34.527 101.35 34.7591C100.073 34.9913 98.7339 34.8226 97.3332 34.2532C95.9434 33.6839 94.561 32.7058 93.1858 31.3189C91.8215 29.9431 90.8442 28.5358 90.2536 27.0969C89.6686 25.6637 89.5061 24.2515 89.766 22.8605C90.0371 21.4695 90.7719 20.1523 91.9704 18.9089L95.4277 22.3955C94.8948 23.0009 94.58 23.6377 94.4832 24.3057C94.3975 24.9738 94.4997 25.6482 94.7896 26.3289C95.0905 27.0097 95.5491 27.6607 96.1652 28.282C96.7703 28.8923 97.3843 29.334 98.0074 29.6074C98.636 29.8862 99.2322 29.9937 99.796 29.9298C100.36 29.8659 100.847 29.6304 101.257 29.2234C101.64 28.8438 101.849 28.411 101.884 27.925C101.925 27.4446 101.822 26.8972 101.576 26.283C101.336 25.6743 100.982 24.985 100.516 24.2152L99.1421 21.8974C98.0669 20.1141 97.4884 18.4378 97.4067 16.8685C97.3249 15.2993 97.9164 13.893 99.1812 12.6499C100.208 11.6212 101.381 11.0019 102.703 10.792C104.029 10.5877 105.393 10.7592 106.794 11.3065C108.195 11.8538 109.511 12.7488 110.743 13.9915C111.998 15.2563 112.876 16.5748 113.378 17.947C113.886 19.3247 114.016 20.6593 113.768 21.951C113.519 23.2426 112.895 24.4001 111.897 25.4234L108.472 21.97ZM107.124 44.8932L103.296 41.0321L126.172 30.0166L130.776 34.6599L119.559 57.4335L115.731 53.5724L124.645 36.2664L124.513 36.1333L107.124 44.8932ZM113.584 38.0096L122.627 47.1298L119.815 49.9187L110.771 40.7985L113.584 38.0096ZM123.8 61.7108L140.843 44.8121L144.415 48.4153L130.344 62.3683L137.589 69.6744L134.618 72.6201L123.8 61.7108ZM139.191 77.2324L156.234 60.3337L167.62 71.8172L164.65 74.7629L156.836 66.8826L152.775 70.9092L160.003 78.1987L157.032 81.1445L149.804 73.8549L145.735 77.8898L153.582 85.8034L150.611 88.7492L139.191 77.2324Z" fill="white"/>
<defs>
<linearGradient id="paint0_linear_312_18" x1="56.8679" y1="1.87084" x2="172.896" y2="113.862" gradientUnits="userSpaceOnUse">
<stop stop-color="#A9030E"/>
<stop offset="0.515625" stop-color="#E91D36"/>
<stop offset="1" stop-color="#A9030E"/>
</linearGradient>
</defs>
</svg>
