<svg width="174" height="176" viewBox="0 0 174 176" fill="none" xmlns="http://www.w3.org/2000/svg">
<path fill-rule="evenodd" clip-rule="evenodd" d="M112.708 1.31541L38.0863 1L37.9997 21.4998L1 21.3434L59.7001 23.0841L151.597 116.981L152.85 175.487L153.008 137.987L173.008 138.072L173.33 61.937L112.708 1.31541Z" fill="url(#paint0_linear_315_31)"/>
<path d="M38.0863 1L38.0884 0.500004L37.5884 0.497891L37.5863 0.997887L38.0863 1ZM112.708 1.31541L113.062 0.961854L112.916 0.816282L112.71 0.815412L112.708 1.31541ZM37.9997 21.4998L37.9976 21.9998L38.4976 22.0019L38.4997 21.5019L37.9997 21.4998ZM1 21.3434L1.00211 20.8434L0.98518 21.8432L1 21.3434ZM59.7001 23.0841L60.0574 22.7344L59.9164 22.5903L59.7149 22.5843L59.7001 23.0841ZM151.597 116.981L152.097 116.97L152.093 116.772L151.954 116.631L151.597 116.981ZM152.85 175.487L152.35 175.497L153.35 175.489L152.85 175.487ZM153.008 137.987L153.01 137.487L152.51 137.485L152.508 137.985L153.008 137.987ZM173.008 138.072L173.006 138.571L173.506 138.574L173.508 138.074L173.008 138.072ZM173.33 61.937L173.83 61.9391L173.831 61.7308L173.684 61.5834L173.33 61.937ZM59.7001 23.0841L59.3428 23.4338L59.4838 23.5779L59.6853 23.5839L59.7001 23.0841ZM38.0842 1.5L112.706 1.8154L112.71 0.815412L38.0884 0.500004L38.0842 1.5ZM38.4997 21.5019L38.5863 1.00211L37.5863 0.997887L37.4997 21.4977L38.4997 21.5019ZM0.997887 21.8434L37.9976 21.9998L38.0018 20.9998L1.00211 20.8434L0.997887 21.8434ZM59.7149 22.5843L1.01482 20.8436L0.98518 21.8432L59.6853 23.5839L59.7149 22.5843ZM151.954 116.631L60.0574 22.7344L59.3428 23.4338L151.24 117.331L151.954 116.631ZM153.35 175.476L152.097 116.97L151.097 116.992L152.35 175.497L153.35 175.476ZM152.508 137.985L152.35 175.485L153.35 175.489L153.508 137.989L152.508 137.985ZM173.01 137.572L153.01 137.487L153.006 138.487L173.006 138.571L173.01 137.572ZM172.83 61.9349L172.508 138.069L173.508 138.074L173.83 61.9391L172.83 61.9349ZM173.684 61.5834L113.062 0.961854L112.355 1.66896L172.976 62.2905L173.684 61.5834ZM60.008 22.593L59.7149 22.5843L59.6853 23.5839L59.9783 23.5926L60.008 22.593ZM151.246 117.337L172.657 138.428L173.359 137.715L151.948 116.625L151.246 117.337ZM37.729 1.34973L59.3428 23.4338L60.0574 22.7344L38.4437 0.650272L37.729 1.34973Z" fill="#750000"/>
<path d="M101.458 22.2191C102.063 21.487 102.301 20.6842 102.172 19.8108C102.043 18.9374 101.55 18.068 100.691 17.2026C100.108 16.6145 99.5329 16.2005 98.9649 15.9606C98.4024 15.7152 97.8697 15.6273 97.3667 15.697C96.8692 15.7722 96.4374 15.9914 96.0712 16.3544C95.7551 16.6459 95.5521 16.9737 95.4622 17.3379C95.3777 17.7077 95.3761 18.0999 95.4572 18.5146C95.5438 18.9238 95.6884 19.3525 95.8909 19.8008C96.099 20.2436 96.3457 20.6922 96.631 21.1464L97.7831 23.0405C98.3538 23.9489 98.8085 24.8513 99.1472 25.7477C99.486 26.6441 99.6784 27.5205 99.7245 28.377C99.7706 29.2334 99.6428 30.0588 99.3411 30.853C99.0449 31.6528 98.5446 32.4075 97.84 33.1172C96.7915 34.1458 95.6232 34.7761 94.3351 35.0082C93.058 35.2404 91.719 35.0717 90.3183 34.5023C88.9286 33.933 87.5461 32.9549 86.1709 31.568C84.8067 30.1922 83.8293 28.7849 83.2387 27.346C82.6537 25.9128 82.4912 24.5006 82.7512 23.1096C83.0222 21.7186 83.757 20.4014 84.9555 19.158L88.4128 22.6446C87.8799 23.25 87.5651 23.8868 87.4683 24.5548C87.3827 25.2229 87.4848 25.8973 87.7747 26.578C88.0756 27.2588 88.5342 27.9098 89.1503 28.5311C89.7554 29.1414 90.3695 29.5832 90.9925 29.8565C91.6211 30.1354 92.2173 30.2428 92.7811 30.1789C93.3448 30.115 93.832 29.8795 94.2425 29.4725C94.6253 29.0929 94.8342 28.6601 94.8694 28.1741C94.9101 27.6937 94.8075 27.1464 94.5615 26.5321C94.321 25.9234 93.9676 25.2341 93.5013 24.4643L92.1272 22.1466C91.052 20.3632 90.4735 18.6869 90.3918 17.1176C90.31 15.5484 90.9015 14.1422 92.1663 12.899C93.1927 11.8703 94.3664 11.251 95.6876 11.0412C97.0143 10.8368 98.3781 11.0083 99.779 11.5556C101.18 12.1029 102.496 12.9979 103.729 14.2406C104.983 15.5054 105.861 16.8239 106.364 18.1961C106.871 19.5738 107.001 20.9085 106.753 22.2001C106.504 23.4917 105.881 24.6492 104.882 25.6725L101.458 22.2191ZM100.11 45.1423L96.2809 41.2812L119.157 30.2657L123.761 34.909L112.544 57.6826L108.716 53.8215L117.63 36.5156L117.498 36.3824L100.11 45.1423ZM106.569 38.2587L115.612 47.3789L112.8 50.1678L103.756 41.0476L106.569 38.2587ZM116.786 61.9599L133.828 45.0613L137.401 48.6644L123.329 62.6174L130.574 69.9235L127.603 72.8692L116.786 61.9599ZM132.177 77.4815L149.219 60.5828L160.605 72.0663L157.635 75.012L149.821 67.1317L145.76 71.1583L152.988 78.4478L150.017 81.3936L142.789 74.1041L138.72 78.1389L146.567 86.0526L143.596 88.9983L132.177 77.4815Z" fill="white"/>
<defs>
<linearGradient id="paint0_linear_315_31" x1="56.5862" y1="1.07818" x2="172.614" y2="113.07" gradientUnits="userSpaceOnUse">
<stop stop-color="#A9030E"/>
<stop offset="0.515625" stop-color="#E91D36"/>
<stop offset="1" stop-color="#A9030E"/>
</linearGradient>
</defs>
</svg>
